<svg height="257" viewBox="0 0 257 257" width="257" xmlns="http://www.w3.org/2000/svg" xmlns:xlink="http://www.w3.org/1999/xlink"><linearGradient id="a" x1="0%" x2="100.026435%" y1="50.012996%" y2="50.012996%"><stop offset="0" stop-color="#0c59a4"/><stop offset="1" stop-color="#114a8b"/></linearGradient><radialGradient id="b" cx="55.246181%" cy="50.926251%" gradientTransform="matrix(.8632 0 0 1 .075582 0)" r="61.975309%"><stop offset=".72" stop-opacity="0"/><stop offset=".95" stop-opacity=".53"/><stop offset="1"/></radialGradient><linearGradient id="c" x1="76.656973%" x2="33.237994%" y1="24.794284%" y2="83.151035%"><stop offset="0" stop-color="#1b9de2"/><stop offset=".16" stop-color="#1595df"/><stop offset=".67" stop-color="#0680d7"/><stop offset="1" stop-color="#0078d4"/></linearGradient><radialGradient id="d" cx="41.834849%" cy="72.563948%" gradientTransform="matrix(.14980455 -.80125515 .98871563 .12140161 -.361775 .972676)" r="85.121757%"><stop offset=".76" stop-opacity="0"/><stop offset=".95" stop-opacity=".5"/><stop offset="1"/></radialGradient><radialGradient id="e" cx="10.101908%" cy="27.789003%" gradientTransform="matrix(-.0266146 .99920097 -.66536792 -.03996786 .288594 .188088)" r="118.830871%"><stop offset="0" stop-color="#35c1f1"/><stop offset=".11" stop-color="#34c1ed"/><stop offset=".23" stop-color="#2fc2df"/><stop offset=".31" stop-color="#2bc3d2"/><stop offset=".67" stop-color="#36c752"/></radialGradient><radialGradient id="f" cx="93.772343%" cy="45.402779%" gradientTransform="matrix(.18645195 .96000002 -.63926402 .27999992 1.05309 -.573312)" r="57.095067%"><stop offset="0" stop-color="#66eb6e"/><stop offset="1" stop-color="#66eb6e" stop-opacity="0"/></radialGradient><g fill="none"><path d="m231.07 190.54c-3.413217 1.785079-6.933226 3.358062-10.54 4.71-11.480543 4.295697-23.642133 6.484106-35.9 6.46-47.32 0-88.54-32.55-88.54-74.32.1233554-11.407981 6.409244-21.856406 16.43-27.31-42.8 1.8-53.8 46.4-53.8 72.53 0 73.88 68.09 81.37 82.76 81.37 7.91 0 19.84-2.3 27-4.56l1.31-.44c27.552441-9.525093 51.04108-28.146716 66.6-52.8.98034-1.544568.78787-3.557388-.467417-4.888181s-3.253449-1.640372-4.852583-.751819z" fill="url(#a)"/><path d="m231.07 190.54c-3.413217 1.785079-6.933226 3.358062-10.54 4.71-11.480543 4.295697-23.642133 6.484106-35.9 6.46-47.32 0-88.54-32.55-88.54-74.32.1233554-11.407981 6.409244-21.856406 16.43-27.31-42.8 1.8-53.8 46.4-53.8 72.53 0 73.88 68.09 81.37 82.76 81.37 7.91 0 19.84-2.3 27-4.56l1.31-.44c27.552441-9.525093 51.04108-28.146716 66.6-52.8.98034-1.544568.78787-3.557388-.467417-4.888181s-3.253449-1.640372-4.852583-.751819z" fill="url(#b)" opacity=".35"/><path d="m105.73 241.42c-8.9193679-5.535977-16.649185-12.789904-22.74-21.34-14.0524592-19.252809-18.8773928-43.731994-13.1817369-66.877226s21.3295056-42.589852 42.7117369-53.122774c3.12-1.47 8.45-4.13 15.54-4 10.126007.0737266 19.633284 4.884727 25.69 13 4.038231 5.391831 6.264721 11.924268 6.36 18.66 0-.21 24.46-79.6-80-79.6-43.9 0-80 41.66-80 78.21-.1731607 19.334465 3.96373331 38.464611 12.11 56 27.5576487 58.798146 94.776763 87.645024 156.38 67.11-21.089025 6.649245-44.032463 3.725583-62.78-8z" fill="url(#c)"/><path d="m105.73 241.42c-8.9193679-5.535977-16.649185-12.789904-22.74-21.34-14.0524592-19.252809-18.8773928-43.731994-13.1817369-66.877226s21.3295056-42.589852 42.7117369-53.122774c3.12-1.47 8.45-4.13 15.54-4 10.126007.0737266 19.633284 4.884727 25.69 13 4.038231 5.391831 6.264721 11.924268 6.36 18.66 0-.21 24.46-79.6-80-79.6-43.9 0-80 41.66-80 78.21-.1731607 19.334465 3.96373331 38.464611 12.11 56 27.5576487 58.798146 94.776763 87.645024 156.38 67.11-21.089025 6.649245-44.032463 3.725583-62.78-8z" fill="url(#d)" opacity=".41"/><path d="m152.33 148.86c-.81 1.05-3.3 2.5-3.3 5.66 0 2.61 1.7 5.12 4.72 7.23 14.38 10 41.49 8.68 41.56 8.68 10.655258-.025572 21.108558-2.909122 30.27-8.35 18.805684-10.980572 30.385385-31.103299 30.43-52.88.26-22.41-8-37.31-11.34-43.91-21.19-41.45-66.93-65.29-116.67-65.29-69.9954289-.00692127-127.01568962 56.2114921-128 126.2.48-36.54 36.8-66.05 80-66.05 3.5 0 23.46.34 42 10.07 16.34 8.58 24.9 18.94 30.85 29.21 6.18 10.67 7.28 24.15 7.28 29.52s-2.74 13.33-7.8 19.91z" fill="url(#e)"/><path d="m152.33 148.86c-.81 1.05-3.3 2.5-3.3 5.66 0 2.61 1.7 5.12 4.72 7.23 14.38 10 41.49 8.68 41.56 8.68 10.655258-.025572 21.108558-2.909122 30.27-8.35 18.805684-10.980572 30.385385-31.103299 30.43-52.88.26-22.41-8-37.31-11.34-43.91-21.19-41.45-66.93-65.29-116.67-65.29-69.9954289-.00692127-127.01568962 56.2114921-128 126.2.48-36.54 36.8-66.05 80-66.05 3.5 0 23.46.34 42 10.07 16.34 8.58 24.9 18.94 30.85 29.21 6.18 10.67 7.28 24.15 7.28 29.52s-2.74 13.33-7.8 19.91z" fill="url(#f)"/></g></svg>