<svg viewBox="0 0 77.424 79.531" xmlns="http://www.w3.org/2000/svg">
  <defs>
    <linearGradient id="firefox-grad-a" x1="70.786" x2="6.447" y1="12.393" y2="74.468" gradientTransform="translate(-1.3 -.004)" gradientUnits="userSpaceOnUse">
      <stop offset=".048" stop-color="#fff44f"/>
      <stop offset=".111" stop-color="#ffe847"/>
      <stop offset=".225" stop-color="#ffc830"/>
      <stop offset=".368" stop-color="#ff980e"/>
      <stop offset=".401" stop-color="#ff8b16"/>
      <stop offset=".462" stop-color="#ff672a"/>
      <stop offset=".534" stop-color="#ff3647"/>
      <stop offset=".705" stop-color="#e31587"/>
    </linearGradient>
    <radialGradient id="firefox-grad-b" cx="38.956" cy="40.063" r="36.424" gradientTransform="translate(-1.3 -.004)" gradientUnits="userSpaceOnUse">
      <stop offset=".129" stop-color="#ffbd4f"/>
      <stop offset=".186" stop-color="#ffac31"/>
      <stop offset=".247" stop-color="#ff9d17"/>
      <stop offset=".283" stop-color="#ff980e"/>
      <stop offset=".403" stop-color="#ff563b"/>
      <stop offset=".467" stop-color="#ff3750"/>
      <stop offset=".71" stop-color="#f5156c"/>
      <stop offset=".782" stop-color="#eb0878"/>
      <stop offset=".86" stop-color="#e50080"/>
    </radialGradient>
  </defs>
  <path fill="url(#firefox-grad-a)" d="M74.617 26.827c-1.684-4.052-5.1-8.727-7.775-10.089a38.552 38.552 0 0 1 3.654 11.4l.007.053c-4.382-10.92-11.81-15.33-17.882-24.938-.31-.49-.62-.985-.926-1.493a10.118 10.118 0 0 1-.443-.878 6.048 6.048 0 0 1-.49-1.473.1.1 0 0 0-.088-.1.137.137 0 0 0-.075 0c-.006 0-.018.011-.026.014l-.009.006-.038.025c-9.545 5.6-12.786 15.96-13.09 21.14a19.104 19.104 0 0 0-10.48 4.2c-.265-.2-.538-.4-.809-.577a17.777 17.777 0 0 1-.932-6.625 28.206 28.206 0 0 0-9.264 7.168l-.017-.007c-1.526-1.932-1.42-8.3-1.333-9.631a6.906 6.906 0 0 0-1.27.615 28.32 28.32 0 0 0-3.992 3.392 34.193 34.193 0 0 0-3.817 4.509 33.033 33.033 0 0 0-5.207 12.2l-.026.126c-.057.262-.28 1.573-.316 1.862 0 .02-.006.04-.008.06v.006a36.887 36.887 0 0 0-.594 5.349v.198a38.633 38.633 0 0 0 76.658 6.618c.052-.379.1-.758.142-1.14a39.168 39.168 0 0 0-1.28-17.9z"/>
  <path fill="url(#firefox-grad-b)" d="M74.617 26.827c-1.684-4.052-5.1-8.727-7.775-10.089a38.552 38.552 0 0 1 3.654 11.4l.007.053a35.874 35.874 0 0 1-1.147 27.374c-4.259 9.152-14.575 18.54-30.726 18.074-17.44-.5-32.8-13.49-35.79-30.42-.545-2.7 0-4.073.331-6.27a28.796 28.796 0 0 0-.594 5.35v.197a38.633 38.633 0 0 0 76.658 6.618c.052-.379.1-.758.142-1.14a39.168 39.168 0 0 0-1.28-17.9c-.167-.432-.32-.855-.48-1.267z"/>
</svg>
