<svg xmlns="http://www.w3.org/2000/svg" viewBox="0 0 128 128">
  <!-- Background gradient -->
  <defs>
    <linearGradient id="bg" x1="0%" y1="0%" x2="100%" y2="100%">
      <stop offset="0%" style="stop-color:#FF6B35;stop-opacity:1" />
      <stop offset="100%" style="stop-color:#F7931E;stop-opacity:1" />
    </linearGradient>
    <linearGradient id="sparkle" x1="0%" y1="0%" x2="100%" y2="100%">
      <stop offset="0%" style="stop-color:#FFE66D;stop-opacity:1" />
      <stop offset="100%" style="stop-color:#FFF;stop-opacity:0.8" />
    </linearGradient>
  </defs>

  <!-- Rounded square background -->
  <rect width="128" height="128" rx="28" fill="url(#bg)"/>

  <!-- Chat bubble -->
  <path d="M 32 45 Q 32 35 42 35 L 86 35 Q 96 35 96 45 L 96 70 Q 96 80 86 80 L 55 80 L 42 93 L 42 80 Q 32 80 32 70 Z"
        fill="white" opacity="0.95"/>

  <!-- AI sparkle/star symbol -->
  <circle cx="64" cy="57" r="8" fill="url(#sparkle)"/>
  <path d="M 64 42 L 66 52 L 64 57 L 62 52 Z" fill="url(#sparkle)"/>
  <path d="M 64 72 L 66 62 L 64 57 L 62 62 Z" fill="url(#sparkle)"/>
  <path d="M 49 57 L 59 59 L 64 57 L 59 55 Z" fill="url(#sparkle)"/>
  <path d="M 79 57 L 69 59 L 64 57 L 69 55 Z" fill="url(#sparkle)"/>

  <!-- Small accent dots -->
  <circle cx="45" cy="48" r="2.5" fill="#FF6B35" opacity="0.6"/>
  <circle cx="83" cy="48" r="2.5" fill="#FF6B35" opacity="0.6"/>
  <circle cx="52" cy="66" r="2" fill="#FF6B35" opacity="0.5"/>
</svg>
