<?xml version="1.0" encoding="UTF-8" standalone="no"?>
<!DOCTYPE svg PUBLIC "-//W3C//DTD SVG 1.1//EN" "http://www.w3.org/Graphics/SVG/1.1/DTD/svg11.dtd">
<svg xmlns="http://www.w3.org/2000/svg" version="1.1" viewBox="0.00 0.00 650.00 650.00">
<g stroke-width="2.00" fill="none" stroke-linecap="butt">
<path stroke="#804b0f" vector-effect="non-scaling-stroke" d="
  M 344.70 120.90
  Q 340.35 120.74 335.89 120.55
  C 328.48 120.23 321.07 120.93 313.39 121.06"
/>
<path stroke="#fca31a" vector-effect="non-scaling-stroke" d="
  M 313.39 121.06
  Q 318.22 107.86 318.62 101.06
  Q 319.01 94.22 318.93 86.35
  A 0.52 0.51 60.6 0 0 317.98 86.08
  Q 314.68 91.42 312.08 95.22
  Q 309.76 98.60 305.18 103.61
  Q 295.70 114.00 284.98 124.78"
/>
<path stroke="#804b0f" vector-effect="non-scaling-stroke" d="
  M 284.98 124.78
  Q 271.50 127.34 257.11 132.09
  Q 251.52 133.94 248.60 133.89
  Q 244.26 133.82 240.12 131.88"
/>
<path stroke="#804b0f" vector-effect="non-scaling-stroke" d="
  M 202.13 113.78
  Q 202.19 113.93 202.25 114.08
  A 1.22 1.22 0.0 0 0 202.65 114.59
  Q 208.82 119.06 215.49 122.75
  Q 215.89 122.97 216.30 122.66"
/>
<path stroke="#371a0d" vector-effect="non-scaling-stroke" d="
  M 364.01 122.01
  Q 364.63 122.52 365.23 122.48"
/>
<path stroke="#804b0f" vector-effect="non-scaling-stroke" d="
  M 510.83 332.07
  Q 521.53 345.06 528.95 360.45"
/>
<path stroke="#825c12" vector-effect="non-scaling-stroke" d="
  M 528.95 360.45
  Q 540.24 383.93 542.04 410.77"
/>
<path stroke="#753b0d" vector-effect="non-scaling-stroke" d="
  M 542.04 410.77
  Q 542.14 420.25 542.05 424.50
  Q 541.28 461.95 521.55 493.33
  Q 507.84 515.13 487.19 532.18
  Q 485.80 533.34 484.36 533.81
  A 0.63 0.62 -22.2 0 1 483.61 533.50
  Q 482.56 531.44 482.22 529.12"
/>
<path stroke="#2b140e" vector-effect="non-scaling-stroke" d="
  M 482.22 529.12
  Q 482.92 528.97 483.12 529.60
  Q 483.55 530.96 484.00 532.09
  A 0.71 0.70 59.5 0 0 485.10 532.38
  Q 499.40 520.98 510.73 506.91
  Q 518.70 497.02 523.65 487.83
  Q 530.46 475.20 533.40 466.92
  Q 538.33 453.02 539.96 438.48
  Q 541.68 423.03 541.22 415.05
  Q 540.89 409.48 540.07 402.71
  Q 535.81 367.82 514.63 338.64
  C 512.46 335.64 510.24 333.86 508.42 330.81
  A 3.64 3.64 0.0 0 1 508.38 327.17
  Q 510.67 323.13 511.98 318.72
  Q 513.13 314.87 515.40 304.53
  Q 516.01 301.73 516.41 296.26
  Q 517.33 283.34 516.63 278.73
  C 516.05 274.98 516.72 270.97 515.87 266.83
  Q 515.62 265.63 515.03 261.14
  Q 512.01 238.13 503.30 217.21
  Q 501.18 212.14 498.79 207.60
  Q 495.07 200.53 493.75 198.25
  C 489.08 190.22 482.86 182.57 476.45 174.50
  A 1.83 1.82 -37.4 0 1 476.80 171.90
  Q 483.19 167.19 487.95 162.16
  Q 493.56 156.24 496.36 150.07
  C 499.48 143.19 501.13 138.03 501.36 130.23
  Q 501.62 121.58 501.14 116.01
  Q 500.31 106.49 495.26 95.59
  C 493.32 91.42 489.01 93.85 486.88 96.13
  Q 472.16 111.87 452.60 122.59
  Q 439.28 129.89 424.13 133.41
  C 418.95 134.61 415.25 135.65 411.20 134.30
  Q 389.19 127.01 367.27 124.03
  Q 354.71 122.32 348.99 122.01
  Q 344.76 121.77 328.66 121.81
  Q 316.78 121.83 308.36 122.68
  Q 289.53 124.57 271.48 128.91
  Q 262.63 131.03 253.73 134.60
  A 4.21 4.04 29.0 0 1 252.71 134.87
  Q 248.55 135.42 246.49 135.00
  Q 222.37 130.03 203.52 116.72
  Q 201.01 114.95 195.74 110.85
  C 188.91 105.51 183.19 99.12 176.97 93.00
  C 172.85 88.95 169.60 91.24 167.65 95.65
  Q 161.97 108.47 161.92 122.55
  Q 161.82 154.18 188.17 171.20
  A 1.64 1.64 0.0 0 1 188.47 173.70
  C 169.60 193.69 158.43 219.27 152.22 245.66
  Q 150.06 254.86 148.34 269.62
  Q 147.71 275.09 147.79 278.94
  C 147.97 287.19 147.70 294.47 148.69 302.22
  Q 150.14 313.45 153.71 324.47
  A 3.57 3.57 0.0 0 1 152.94 328.00
  Q 143.84 337.87 136.66 350.40
  C 129.00 363.76 124.33 376.46 121.55 390.75
  Q 119.36 401.99 118.96 410.49
  Q 118.52 419.56 119.30 433.23
  C 119.52 437.07 120.51 442.26 121.65 448.19
  Q 125.74 469.40 136.97 488.55
  Q 148.50 508.21 165.04 523.94
  Q 177.74 536.02 187.73 542.77
  C 197.01 549.05 201.65 552.08 205.05 554.70
  Q 206.21 555.60 207.63 557.13
  Q 214.98 565.03 223.97 570.52
  Q 228.76 573.44 232.14 575.48
  Q 232.53 575.71 232.46 576.14
  Q 232.35 576.88 231.15 577.08"
/>
<path stroke="#752f0b" vector-effect="non-scaling-stroke" d="
  M 231.15 577.08
  L 210.98 562.58"
/>
<path stroke="#2b140e" vector-effect="non-scaling-stroke" d="
  M 210.98 562.58
  Q 206.23 556.61 201.76 553.25
  C 197.46 550.02 189.88 545.64 182.94 540.50
  C 180.83 538.93 178.51 537.77 176.70 535.72
  A 2.46 2.39 -0.9 0 0 176.37 535.41
  L 169.94 530.66"
/>
<path stroke="#752f0b" vector-effect="non-scaling-stroke" d="
  M 169.94 530.66
  L 154.08 514.17"
/>
<path stroke="#804b0f" vector-effect="non-scaling-stroke" d="
  M 154.08 514.17
  Q 145.88 504.43 140.79 496.96
  Q 121.17 468.17 118.17 433.46"
/>
<path stroke="#79410e" vector-effect="non-scaling-stroke" d="
  M 118.17 433.46
  Q 117.59 423.11 117.58 420.00
  Q 117.53 405.57 120.18 390.82"
/>
<path stroke="#825c12" vector-effect="non-scaling-stroke" d="
  M 120.18 390.82
  Q 124.79 368.31 135.71 349.96
  Q 138.70 344.94 143.41 338.02"
/>
<path stroke="#804b0f" vector-effect="non-scaling-stroke" d="
  M 143.41 338.02
  L 152.50 326.79
  A 1.75 1.74 55.1 0 0 152.79 325.15
  Q 148.05 310.84 146.80 296.46"
/>
<path stroke="#371a0d" vector-effect="non-scaling-stroke" d="
  M 146.54 292.76
  L 146.47 280.42"
/>
<path stroke="#804b0f" vector-effect="non-scaling-stroke" d="
  M 152.17 240.17
  Q 156.16 226.68 159.14 218.88
  C 165.27 202.81 175.30 186.06 187.82 173.12
  A 0.67 0.67 0.0 0 0 187.68 172.09
  Q 178.86 166.85 172.01 157.76
  Q 168.82 153.54 166.46 150.06"
/>
<path stroke="#825c12" vector-effect="non-scaling-stroke" d="
  M 313.39 121.06
  L 284.98 124.78"
/>
<path stroke="#f19318" vector-effect="non-scaling-stroke" d="
  M 547.02 353.54
  Q 550.56 375.59 545.85 399.37
  Q 544.51 406.13 542.04 410.77"
/>
<path stroke="#fca31a" vector-effect="non-scaling-stroke" d="
  M 143.41 338.02
  Q 143.16 336.59 141.96 335.77
  Q 127.55 326.03 117.34 314.40
  Q 112.67 309.07 109.69 302.72
  A 0.43 0.43 0.0 0 0 108.99 302.61
  Q 108.04 303.62 107.33 305.58
  C 105.02 311.91 103.50 316.99 102.86 324.34
  Q 102.46 328.94 102.12 333.50"
/>
<path stroke="#f28816" vector-effect="non-scaling-stroke" d="
  M 102.12 333.50
  C 89.11 337.92 78.65 333.12 66.88 327.20
  A 0.79 0.77 -77.3 0 1 66.45 326.50
  L 66.43 324.98"
/>
<path stroke="#993f12" vector-effect="non-scaling-stroke" d="
  M 169.94 530.66
  Q 171.58 533.11 174.90 536.34
  Q 191.50 552.44 210.98 562.58"
/>
<path stroke="#752f0b" vector-effect="non-scaling-stroke" d="
  M 233.13 577.62
  Q 228.15 582.10 227.08 589.06
  Q 226.09 595.51 225.76 598.48"
/>
<path stroke="#994b13" vector-effect="non-scaling-stroke" d="
  M 482.22 529.12
  Q 481.88 529.12 481.38 528.76"
/>
<path stroke="#2b140e" vector-effect="non-scaling-stroke" d="
  M 481.38 528.76
  Q 481.24 527.64 480.10 529.29
  Q 466.46 549.14 446.83 564.31
  Q 438.27 570.93 428.63 575.49
  A 1.69 1.69 0.0 0 0 428.02 578.06
  C 432.69 584.01 433.50 588.99 434.92 597.67
  A 3.16 3.03 -47.4 0 1 434.94 598.66
  Q 433.83 606.83 430.36 613.76
  A 0.96 0.80 84.8 0 1 430.27 613.89
  L 425.33 620.29"
/>
<path stroke="#2b140e" vector-effect="non-scaling-stroke" d="
  M 226.11 599.82
  Q 227.14 598.10 227.15 597.27
  Q 227.31 587.01 233.13 577.62"
/>
<path stroke="#993f12" vector-effect="non-scaling-stroke" d="
  M 233.13 577.62
  L 231.15 577.08"
/>
<path stroke="#f28816" vector-effect="non-scaling-stroke" d="
  M 118.17 433.46
  Q 110.26 427.84 105.00 420.01
  A 0.42 0.42 0.0 0 0 104.24 420.17
  Q 103.83 422.79 104.01 425.52
  Q 104.76 436.74 106.09 445.15
  C 107.51 454.12 110.44 461.73 113.82 469.93"
/>
<path stroke="#e76b12" vector-effect="non-scaling-stroke" d="
  M 113.82 469.93
  C 100.81 469.98 90.30 468.83 75.18 467.45"
/>
<path stroke="#753b0d" vector-effect="non-scaling-stroke" d="
  M 434.85 589.91
  Q 433.20 582.52 428.50 577.36
  A 0.62 0.61 -32.0 0 1 428.73 576.37
  Q 433.14 574.62 437.30 572.05
  Q 451.92 563.02 463.86 550.61
  C 468.10 546.21 473.83 539.80 478.08 533.38
  Q 479.67 530.99 481.38 528.76"
/>
<path stroke="#ee7613" vector-effect="non-scaling-stroke" d="
  M 154.08 514.17
  Q 154.09 514.59 153.99 514.88
  A 0.50 0.49 25.6 0 1 153.25 515.14
  Q 146.90 510.96 143.52 507.98
  C 131.46 497.34 121.40 485.36 113.82 469.93"
/>
<path stroke="#f59819" vector-effect="non-scaling-stroke" d="
  M 120.18 390.82
  Q 112.97 381.65 108.94 371.13
  C 106.54 364.88 104.23 357.95 103.35 351.38
  Q 102.35 343.93 102.12 333.50"
/>
<path stroke="#804b0f" vector-effect="non-scaling-stroke" d="
  M 412.95 132.70
  Q 412.13 133.20 410.95 132.82
  Q 388.48 125.76 365.23 122.48"
/>
<path stroke="#b16115" vector-effect="non-scaling-stroke" d="
  M 365.23 122.48
  L 365.21 122.10"
/>
<path stroke="#ee8215" vector-effect="non-scaling-stroke" d="
  M 582.62 351.12
  C 569.82 349.61 559.21 349.74 547.02 353.54"
/>
<path stroke="#fca31a" vector-effect="non-scaling-stroke" d="
  M 547.02 353.54
  C 546.29 349.55 545.99 344.50 544.20 340.92
  A 0.43 0.43 0.0 0 0 543.41 340.96
  Q 539.02 352.42 528.95 360.45"
/>
<path stroke="#371a0d" vector-effect="non-scaling-stroke" d="
  M 146.16 285.94
  L 146.16 284.54"
/>
<path stroke="#2b140e" vector-effect="non-scaling-stroke" d="
  M 404.66 355.39
  C 418.94 354.38 433.07 351.01 445.33 344.07
  Q 458.70 336.50 468.13 326.67
  Q 478.65 315.71 484.47 303.11
  C 488.93 293.46 492.05 282.07 492.64 270.92
  Q 493.12 262.02 493.12 262.01
  Q 493.20 230.47 474.41 207.08
  C 466.17 196.83 455.91 189.30 444.17 184.38
  Q 427.57 177.43 409.70 181.80
  Q 396.72 184.97 385.74 191.99
  Q 375.89 198.30 370.44 203.21
  Q 370.17 203.44 364.76 208.50
  C 355.19 217.44 346.88 228.14 339.97 239.21
  Q 334.45 248.04 333.48 249.76
  A 0.75 0.75 0.0 0 1 332.14 249.70
  Q 328.43 241.59 324.07 235.20
  Q 316.14 223.61 306.96 212.91
  Q 303.54 208.91 299.01 205.15
  Q 290.64 198.20 290.43 198.05
  Q 276.04 187.52 260.56 182.77
  Q 245.04 178.01 228.51 182.01
  Q 224.06 183.09 218.07 186.04
  Q 211.28 189.40 208.32 191.59
  Q 194.33 201.98 185.01 217.02
  Q 177.86 228.56 175.14 241.57
  Q 173.42 249.81 172.92 258.99
  C 172.66 263.87 173.08 266.99 173.49 272.99
  C 175.08 296.14 187.77 318.05 205.50 332.75
  C 207.40 334.32 211.00 336.81 213.38 338.59
  C 227.37 349.07 246.87 354.48 264.80 355.49
  A 0.34 0.34 0.0 0 1 264.85 356.16
  Q 242.08 361.19 218.90 358.33
  C 216.92 358.09 214.99 356.97 213.10 357.51
  A 1.36 1.35 -84.3 0 0 212.25 358.21
  C 203.59 375.93 198.97 393.92 196.77 413.63
  Q 196.07 419.92 196.11 428.40
  C 196.15 438.01 195.70 444.22 196.78 452.25
  Q 196.97 453.59 198.08 461.22
  C 202.11 488.79 213.22 515.42 231.92 535.82
  Q 260.47 566.97 302.24 574.49
  Q 304.16 574.83 310.92 575.83
  Q 315.73 576.54 319.63 576.71
  Q 336.59 577.47 352.01 576.28
  C 383.09 573.87 413.31 559.56 434.41 536.45
  Q 457.82 510.79 467.07 476.36
  Q 471.91 458.31 473.00 437.88
  C 474.45 410.63 471.05 383.51 458.90 359.48
  A 2.80 2.79 -17.1 0 0 456.04 357.97
  Q 433.72 360.97 410.37 357.34
  Q 408.11 356.99 404.60 356.01
  A 0.32 0.32 0.0 0 1 404.66 355.39"
/>
<path stroke="#5c2a14" vector-effect="non-scaling-stroke" d="
  M 172.86 363.26
  Q 166.60 368.67 161.51 375.23
  C 148.38 392.11 139.82 413.67 140.57 435.71
  A 0.30 0.30 0.0 0 0 141.13 435.84
  C 142.85 432.59 144.30 430.13 145.39 427.23
  Q 150.18 414.56 152.79 408.05
  C 156.57 398.58 162.53 387.87 166.50 378.80
  Q 170.75 369.11 173.33 363.62
  A 0.30 0.30 0.0 0 0 172.86 363.26"
/>
<path stroke="#5c2a14" vector-effect="non-scaling-stroke" d="
  M 501.80 380.91
  Q 503.17 386.31 503.41 387.00
  Q 508.77 402.65 510.68 410.55
  Q 515.26 429.50 518.38 443.97
  A 0.45 0.45 0.0 0 0 519.25 444.03
  Q 520.20 441.47 520.54 438.54
  Q 522.51 421.60 517.26 406.93
  C 514.09 398.08 508.70 387.44 502.10 380.74
  A 0.18 0.18 0.0 0 0 501.80 380.91"
/>
<path stroke="#5c2a14" vector-effect="non-scaling-stroke" d="
  M 168.77 418.57
  Q 165.40 422.88 162.57 430.63
  Q 157.29 445.09 156.13 458.10
  C 154.83 472.67 158.79 494.65 171.64 504.68
  A 0.36 0.35 -75.5 0 0 172.21 504.34
  C 170.77 494.81 169.29 487.00 168.58 477.86
  Q 166.56 451.60 168.98 425.21
  Q 169.16 423.31 169.25 418.74
  A 0.27 0.27 0.0 0 0 168.77 418.57"
/>
<path stroke="#5c2a14" vector-effect="non-scaling-stroke" d="
  M 497.16 496.93
  C 499.90 492.38 502.61 487.50 502.62 482.64
  Q 502.64 473.79 503.09 467.35
  A 0.20 0.19 -83.6 0 0 502.93 467.14
  L 502.65 467.09
  A 0.24 0.23 10.9 0 0 502.37 467.27
  L 496.63 496.72
  A 0.29 0.29 0.0 0 0 497.16 496.93"
/>
<path stroke="#2b140e" vector-effect="non-scaling-stroke" d="
  M 405.15 614.65
  C 414.43 616.11 421.72 608.10 422.72 599.56
  C 423.73 590.96 418.94 580.79 409.78 578.87
  Q 404.72 577.80 402.46 581.24
  Q 400.40 584.37 401.56 587.14
  Q 406.78 599.56 403.32 610.94
  Q 402.71 612.95 404.28 614.25
  A 1.80 1.80 0.0 0 0 405.15 614.65"
/>
<path stroke="#2b140e" vector-effect="non-scaling-stroke" d="
  M 257.18 615.56
  C 258.98 614.94 258.92 612.33 258.43 610.82
  C 256.12 603.76 255.92 597.17 258.50 590.79
  C 259.70 587.83 261.05 585.30 259.61 583.14
  C 254.91 576.10 246.18 579.13 242.51 585.01
  Q 239.78 589.39 239.34 591.84
  C 238.54 596.25 238.69 603.16 240.98 607.05
  C 244.35 612.77 250.15 618.01 257.18 615.56"
/>
<path stroke="#2b140e" vector-effect="non-scaling-stroke" d="
  M 281.72 620.05
  Q 284.47 620.01 285.58 618.01
  A 2.12 2.05 62.5 0 0 285.85 617.10
  C 286.07 613.91 285.65 609.60 286.26 605.67
  C 287.01 600.83 290.36 592.54 288.35 587.46
  Q 285.78 580.97 279.80 580.86
  C 276.68 580.80 272.65 583.17 270.98 585.55
  Q 263.57 596.07 268.54 608.61
  C 270.61 613.83 275.50 620.15 281.72 620.05"
/>
<path stroke="#2b140e" vector-effect="non-scaling-stroke" d="
  M 377.41 620.47
  Q 382.28 621.10 386.62 618.10
  C 397.96 610.27 399.48 589.11 386.58 582.05
  C 380.47 578.71 374.50 582.86 373.27 588.76
  Q 372.75 591.22 374.49 597.28
  Q 376.32 603.72 376.67 608.07
  A 2.84 1.74 -64.1 0 1 376.67 608.42
  L 376.03 618.81
  A 1.59 1.58 5.4 0 0 377.41 620.47"
/>
<path stroke="#79410e" vector-effect="non-scaling-stroke" d="
  M 174.17 258.28
  Q 172.32 295.80 196.97 323.09"
/>
<path stroke="#753b0d" vector-effect="non-scaling-stroke" d="
  M 196.97 323.09
  C 218.30 346.40 248.17 357.00 279.81 353.38"
/>
<path stroke="#6c300a" vector-effect="non-scaling-stroke" d="
  M 279.81 353.38
  Q 270.42 356.35 261.36 358.14
  Q 242.57 361.84 222.81 359.93
  Q 218.27 359.49 213.89 358.26
  A 0.81 0.81 0.0 0 0 212.94 358.70
  Q 199.99 386.40 197.63 417.17
  C 194.85 453.36 201.45 491.66 221.71 521.29
  Q 248.72 560.81 295.82 572.14
  C 316.97 577.23 340.49 577.24 361.38 574.13
  Q 375.97 571.96 390.63 565.89
  Q 421.28 553.20 441.12 527.11
  Q 458.54 504.21 465.95 475.98
  Q 476.42 436.08 469.45 395.52
  Q 466.19 376.54 457.99 359.94
  A 1.87 1.86 -17.8 0 0 456.01 358.93
  Q 445.53 360.68 436.08 360.64
  Q 413.58 360.53 392.39 354.34
  A 0.34 0.33 25.1 0 1 392.20 353.83
  Q 392.28 353.71 392.85 353.83"
/>
<path stroke="#753b0d" vector-effect="non-scaling-stroke" d="
  M 392.85 353.83
  Q 413.67 355.73 433.60 348.32"
/>
<path stroke="#825c12" vector-effect="non-scaling-stroke" d="
  M 433.60 348.32
  Q 451.75 341.41 463.83 329.56
  C 472.92 320.66 480.13 311.20 484.53 300.29
  Q 493.34 278.46 491.57 254.77
  Q 489.47 226.60 471.75 205.76
  C 464.05 196.70 452.91 188.48 442.02 184.73
  Q 421.55 177.66 400.77 185.80
  C 371.18 197.39 348.55 224.13 334.04 251.25"
/>
<path stroke="#753b0d" vector-effect="non-scaling-stroke" d="
  M 334.04 251.25
  Q 333.77 252.03 333.23 252.55
  A 0.44 0.43 54.5 0 1 332.54 252.43
  L 332.05 251.47"
/>
<path stroke="#79410e" vector-effect="non-scaling-stroke" d="
  M 332.05 251.47
  C 321.41 230.08 305.95 210.26 286.28 196.40"
/>
<path stroke="#825c12" vector-effect="non-scaling-stroke" d="
  M 286.28 196.40
  Q 276.92 189.91 265.40 185.60
  Q 239.62 175.94 215.58 188.67
  Q 203.71 194.96 194.88 205.15
  Q 175.21 227.85 174.17 258.28"
/>
<path stroke="#f59819" vector-effect="non-scaling-stroke" d="
  M 286.28 196.40
  Q 286.10 197.51 285.57 197.16
  Q 277.78 191.93 267.30 187.66
  Q 256.97 183.45 247.33 183.09
  Q 234.96 182.62 226.46 185.21
  Q 208.97 190.54 195.66 206.11
  Q 186.19 217.18 181.25 230.00
  Q 178.41 237.38 176.41 248.10
  C 175.66 252.10 176.03 255.80 175.43 259.69
  A 0.60 0.60 0.0 0 1 174.26 259.77
  Q 174.08 259.18 174.17 258.28"
/>
<path stroke="#e77814" vector-effect="non-scaling-stroke" d="
  M 332.05 251.47
  Q 330.17 250.90 329.10 248.85
  Q 319.12 229.62 302.95 212.48
  Q 301.25 210.69 299.18 209.95
  Q 293.16 207.79 286.90 202.62
  C 284.20 200.40 281.35 199.21 277.91 198.87
  A 1.53 1.53 0.0 0 0 276.27 200.09
  L 275.74 202.82
  A 0.98 0.95 25.6 0 0 276.08 203.75
  Q 285.59 211.39 292.76 217.82
  C 296.63 221.30 299.57 224.84 301.62 230.43
  Q 302.82 233.70 306.98 243.34
  C 310.36 251.15 310.52 258.40 310.02 267.63
  C 309.71 273.31 307.72 277.67 304.55 281.83
  Q 299.26 288.76 296.99 292.02
  Q 296.21 293.14 295.00 297.40
  C 293.76 301.75 292.55 302.76 289.16 306.33
  Q 277.28 318.83 259.59 319.07
  Q 246.75 319.24 232.87 318.35
  A 1.88 1.87 -24.4 0 1 231.88 317.98
  C 227.73 314.84 221.71 312.34 218.90 310.32
  C 215.68 308.01 212.78 304.51 206.38 297.80
  C 201.26 292.44 193.51 294.80 187.79 297.45
  Q 185.56 298.48 184.51 301.51
  A 1.36 1.36 0.0 0 0 184.54 302.48
  Q 185.60 305.03 186.82 306.99
  Q 191.68 314.81 196.23 320.22
  Q 196.96 321.08 197.34 321.82
  Q 198.15 323.36 196.97 323.09"
/>
<path stroke="#f1b989" vector-effect="non-scaling-stroke" d="
  M 360.52 251.84
  Q 357.14 278.97 374.13 298.62
  Q 392.38 319.72 421.54 316.09"
/>
<path stroke="#da6710" vector-effect="non-scaling-stroke" d="
  M 392.85 353.83
  Q 389.97 352.90 383.70 351.54
  Q 371.20 348.82 355.04 339.13
  Q 353.85 338.42 352.78 337.18
  A 1.00 1.00 0.0 0 0 351.25 337.20
  Q 350.81 337.73 343.56 346.55
  C 331.43 361.32 322.86 348.55 315.38 339.11
  A 0.63 0.62 -34.4 0 0 314.56 338.96
  Q 298.09 348.96 279.81 353.38"
/>
<path stroke="#f19318" vector-effect="non-scaling-stroke" d="
  M 433.60 348.32
  L 432.35 348.35
  A 0.33 0.32 33.8 0 1 432.22 347.72
  Q 449.18 341.22 462.61 328.98
  Q 475.13 317.57 481.94 302.79
  Q 489.01 287.47 490.16 271.21
  Q 490.95 260.11 489.52 247.91"
/>
<path stroke="#f59819" vector-effect="non-scaling-stroke" d="
  M 489.52 247.91
  Q 487.16 232.40 479.67 219.15
  Q 478.04 216.26 474.97 212.12
  Q 471.32 207.19 469.82 205.43
  Q 465.53 200.39 457.61 194.58
  Q 437.87 180.12 413.72 183.68
  Q 409.45 184.31 403.44 186.19
  Q 396.43 188.38 393.59 190.09
  Q 387.85 193.54 383.67 195.98
  Q 381.95 196.99 380.18 198.29"
/>
<path stroke="#f19318" vector-effect="non-scaling-stroke" d="
  M 380.18 198.29
  Q 369.70 205.78 361.58 214.58
  Q 346.65 230.75 335.69 250.91
  A 0.75 0.74 15.2 0 1 335.00 251.30
  L 334.04 251.25"
/>
<path stroke="#e77814" vector-effect="non-scaling-stroke" d="
  M 489.52 247.91
  C 484.08 241.62 481.04 239.42 472.58 240.94
  Q 470.47 241.32 470.42 241.27
  A 0.15 0.15 0.0 0 0 470.16 241.40
  L 471.16 248.37
  A 10.32 9.87 45.4 0 1 471.20 250.98
  Q 470.13 260.41 470.18 269.23
  C 470.19 272.58 469.51 277.10 468.22 279.26
  Q 464.72 285.07 462.20 291.10
  A 16.90 16.86 -15.1 0 1 460.07 294.79
  Q 456.84 299.04 452.08 304.92
  C 448.21 309.69 441.26 312.91 435.49 315.17
  C 429.88 317.37 426.20 319.22 421.54 316.09"
/>
<path stroke="#f5be8a" vector-effect="non-scaling-stroke" d="
  M 421.54 316.09
  C 449.55 311.40 467.81 286.65 467.03 258.85
  C 466.37 235.34 450.65 212.99 428.10 206.38
  C 395.64 196.87 365.48 219.87 360.52 251.84"
/>
<path stroke="#e77814" vector-effect="non-scaling-stroke" d="
  M 360.52 251.84
  Q 357.71 237.32 366.76 226.32
  Q 376.23 214.81 389.62 207.16
  A 1.30 1.30 0.0 0 0 390.05 205.30
  C 387.78 201.94 385.05 197.52 380.18 198.29"
/>
<path stroke="#f5be8a" vector-effect="non-scaling-stroke" d="
  M 198.66 263.61
  C 200.53 294.18 224.23 318.92 256.01 316.35
  C 285.93 313.93 307.61 286.32 305.82 257.06
  C 304.04 227.81 279.16 203.04 249.16 204.28
  C 217.31 205.60 196.79 233.04 198.66 263.61"
/>
<path stroke="#753b0d" vector-effect="non-scaling-stroke" d="
  M 332.48 352.46
  C 335.66 352.46 338.51 350.30 340.71 347.94
  Q 349.32 338.68 356.11 327.40
  C 365.01 312.65 365.23 293.75 351.39 281.99
  Q 343.29 275.11 332.55 275.10
  Q 321.81 275.09 313.70 281.95
  C 299.83 293.69 300.02 312.59 308.89 327.36
  Q 315.66 338.65 324.25 347.92
  C 326.45 350.28 329.29 352.46 332.48 352.46"
/>
<path stroke="#a7928a" vector-effect="non-scaling-stroke" d="
  M 262.0469 231.9381
  A 30.68 29.15 -84.0 0 0 229.8497 259.4030
  A 30.68 29.15 -84.0 0 0 255.6331 292.9619
  A 30.68 29.15 -84.0 0 0 287.8303 265.4970
  A 30.68 29.15 -84.0 0 0 262.0469 231.9381"
/>
<path stroke="#a7928a" vector-effect="non-scaling-stroke" d="
  M 406.2382 231.9105
  A 30.63 29.31 -91.5 0 0 377.7400 263.2972
  A 30.63 29.31 -91.5 0 0 407.8418 293.1495
  A 30.63 29.31 -91.5 0 0 436.3400 261.7628
  A 30.63 29.31 -91.5 0 0 406.2382 231.9105"
/>
<path stroke="#a7928a" vector-effect="non-scaling-stroke" d="
  M 266.7234 242.1275
  A 7.77 7.34 -103.9 0 0 261.4649 251.4333
  A 7.77 7.34 -103.9 0 0 270.4566 257.2125
  A 7.77 7.34 -103.9 0 0 275.7151 247.9067
  A 7.77 7.34 -103.9 0 0 266.7234 242.1275"
/>
<path stroke="#a7928a" vector-effect="non-scaling-stroke" d="
  M 393.48 255.01
  Q 397.79 257.72 401.62 255.62
  Q 404.79 253.88 406.15 249.08"
/>
<path stroke="#2b140e" vector-effect="non-scaling-stroke" d="
  M 406.15 249.08
  Q 407.44 244.64 402.58 241.36
  A 3.72 3.54 -18.4 0 0 401.58 240.89
  Q 393.80 238.68 390.84 245.10
  C 388.98 249.12 389.47 253.07 392.88 255.88
  Q 393.20 256.15 393.47 255.82
  Q 393.74 255.49 393.48 255.01"
/>
<path stroke="#838283" vector-effect="non-scaling-stroke" d="
  M 406.15 249.08
  Q 405.03 243.56 401.06 241.90
  C 392.73 238.41 387.64 248.94 393.48 255.01"
/>
<path stroke="#f28816" vector-effect="non-scaling-stroke" d="
  M 539.17 303.49
  C 539.52 303.38 539.06 303.64 539.14 303.59
  Q 539.43 303.41 539.17 303.49"
/>
<path stroke="#f28816" vector-effect="non-scaling-stroke" d="
  M 539.17 303.49
  Q 542.03 302.18 543.99 300.17
  A 0.08 0.08 0.0 0 0 543.90 300.04
  Q 541.23 301.17 539.17 303.49"
/>
<path stroke="#2b140e" vector-effect="non-scaling-stroke" d="
  M 332.50 351.38
  C 339.47 351.39 349.66 335.73 353.39 329.88
  C 358.42 322.02 361.37 314.06 361.18 305.54
  C 360.82 289.33 349.24 276.44 332.57 276.43
  C 315.90 276.41 304.29 289.28 303.91 305.49
  C 303.70 314.01 306.64 321.98 311.65 329.85
  C 315.38 335.70 325.54 351.38 332.50 351.38"
/>
<path stroke="#2b140e" vector-effect="non-scaling-stroke" d="
  M 332.13 339.64
  Q 333.84 339.66 335.47 337.71
  Q 343.20 328.47 348.01 318.50
  C 352.02 310.16 353.49 300.75 347.45 293.02
  C 344.01 288.62 338.53 285.18 332.85 285.11
  C 327.16 285.03 321.59 288.32 318.03 292.64
  C 311.80 300.20 313.02 309.65 316.81 318.09
  Q 321.36 328.18 328.84 337.62
  Q 330.42 339.61 332.13 339.64"
/>
<path stroke="#79410e" vector-effect="non-scaling-stroke" d="
  M 332.37 338.89
  Q 333.15 338.90 333.72 338.24
  C 341.71 329.21 350.75 315.57 350.00 302.94
  C 349.47 294.10 341.48 286.49 332.63 286.45
  C 323.79 286.40 315.72 293.93 315.10 302.76
  C 314.22 315.38 323.12 329.12 331.02 338.23
  Q 331.59 338.89 332.37 338.89"
/>
<path stroke="#c8550c" vector-effect="non-scaling-stroke" d="
  M 287.02 412.35
  A 0.21 0.21 0.0 0 0 286.61 412.30
  C 283.53 420.73 279.74 430.40 275.38 437.11
  C 271.12 443.66 262.51 451.85 254.51 444.94
  C 250.10 441.13 246.92 435.62 243.99 430.21
  C 240.32 423.41 239.54 412.27 238.78 403.07
  A 0.40 0.39 -38.2 0 0 238.01 402.98
  C 231.95 420.87 233.96 441.91 247.55 455.91
  Q 250.89 459.34 253.99 460.38
  C 263.50 463.55 273.76 457.74 279.51 450.17
  A 0.97 0.97 0.0 0 1 281.17 450.35
  Q 287.22 463.46 296.78 473.46
  C 300.72 477.60 308.60 479.84 312.71 484.79
  Q 320.94 494.68 323.00 496.95
  C 329.74 504.36 338.71 502.88 344.86 495.81
  Q 349.95 489.96 355.67 481.78
  A 1.70 1.69 16.9 0 1 357.01 481.07
  C 365.75 480.93 372.38 479.38 378.20 472.68
  Q 385.78 463.94 390.83 453.32
  A 0.93 0.93 0.0 0 1 392.41 453.16
  C 395.08 456.69 399.16 462.16 403.26 464.17
  C 409.54 467.24 415.88 466.13 421.29 461.58
  C 437.44 447.99 441.25 424.34 431.85 405.76
  A 0.62 0.62 0.0 0 0 430.67 406.04
  Q 430.70 412.57 430.00 419.46
  C 428.85 430.75 422.53 443.90 413.21 450.48
  A 1.04 1.01 31.5 0 1 412.45 450.65
  Q 405.55 449.47 401.13 444.12
  Q 397.11 439.25 391.74 430.15
  C 389.70 426.69 388.04 421.84 385.95 417.60
  A 0.42 0.42 0.0 0 0 385.16 417.75
  Q 385.01 419.66 384.21 428.94
  Q 382.78 445.51 371.62 457.56
  C 368.27 461.17 365.73 462.52 361.09 462.37
  A 1.55 1.55 0.0 0 1 359.85 461.67
  Q 356.22 456.10 353.69 448.96
  A 0.64 0.64 0.0 0 0 352.45 449.13
  C 351.55 461.76 346.47 476.46 335.15 483.68
  A 1.51 1.50 -51.6 0 1 333.84 483.84
  C 328.18 481.92 326.30 478.32 323.53 472.72
  Q 318.32 462.20 318.31 451.02
  A 0.38 0.37 -30.3 0 0 317.61 450.84
  L 312.70 459.33
  A 1.35 1.35 0.0 0 1 311.13 459.95
  Q 303.93 457.74 299.59 451.62
  Q 291.38 440.03 289.04 426.95
  Q 287.69 419.40 287.02 412.35"
/>
<path stroke="#c8550c" vector-effect="non-scaling-stroke" d="
  M 227.00 465.75
  C 226.80 475.57 227.66 483.82 231.85 493.01
  C 234.55 498.95 240.37 503.25 245.81 505.94
  Q 251.44 508.72 256.26 504.99
  A 0.64 0.64 0.0 0 0 255.98 503.85
  C 250.56 502.91 247.00 498.63 243.37 494.40
  Q 237.68 487.75 232.82 479.48
  C 230.21 475.03 228.84 470.72 227.57 465.68
  A 0.29 0.29 0.0 0 0 227.00 465.75"
/>
<path stroke="#c8550c" vector-effect="non-scaling-stroke" d="
  M 440.67 472.04
  A 0.23 0.23 0.0 0 0 440.23 471.92
  Q 435.77 480.46 428.86 491.10
  Q 425.67 496.03 418.95 500.86
  A 0.79 0.79 0.0 0 0 418.79 501.99
  L 421.63 505.65
  A 0.67 0.66 -25.9 0 0 422.34 505.89
  Q 428.67 504.12 432.40 498.27
  Q 439.91 486.53 440.67 472.04"
/>
<path stroke="#c8550c" vector-effect="non-scaling-stroke" d="
  M 203.95 476.00
  C 210.50 506.45 227.47 533.81 252.99 551.55
  C 264.52 559.57 276.63 565.83 289.58 569.16
  C 298.20 571.38 308.27 573.63 317.61 574.22
  Q 339.69 575.61 357.40 573.39
  Q 390.13 569.27 416.63 549.77
  Q 428.86 540.77 437.38 529.90
  Q 443.23 522.44 447.63 515.40
  Q 453.93 505.31 457.89 494.86
  A 1.13 1.12 37.0 0 0 457.73 493.78
  L 456.05 491.63
  A 0.73 0.73 0.0 0 0 454.99 491.52
  C 449.64 496.11 442.06 506.81 435.23 513.17
  C 425.60 522.14 414.11 529.09 401.09 533.20
  Q 391.84 536.11 386.19 537.71
  A 0.26 0.26 0.0 0 1 385.98 537.24
  Q 400.97 527.77 406.21 510.46
  C 408.17 503.98 407.46 496.33 407.65 490.81
  A 0.41 0.40 -29.4 0 0 406.89 490.60
  C 403.56 496.64 398.57 506.11 393.26 511.74
  C 386.63 518.78 383.08 522.35 373.62 523.36
  A 0.80 0.79 82.9 0 1 372.75 522.68
  L 372.48 520.78
  A 0.96 0.95 54.6 0 0 370.69 520.47
  Q 361.78 537.71 342.32 539.47
  C 331.30 540.47 321.28 540.36 311.85 534.29
  C 306.89 531.11 301.58 523.92 299.11 518.90
  A 0.69 0.69 0.0 0 0 297.80 519.21
  L 297.80 529.74
  A 0.39 0.38 -70.3 0 1 297.17 530.04
  Q 295.22 528.44 286.81 522.67
  C 277.78 516.48 272.65 507.28 267.47 495.91
  Q 266.69 494.19 265.29 491.85
  A 0.58 0.58 0.0 0 0 264.23 492.01
  C 260.96 505.69 260.86 524.90 274.58 533.24
  Q 278.75 535.77 279.57 536.23
  A 0.18 0.17 -25.0 0 1 279.45 536.55
  C 274.21 535.70 268.66 534.81 263.34 532.51
  C 255.38 529.05 249.53 525.95 243.05 520.61
  C 237.11 515.73 232.37 511.77 228.60 506.15
  C 223.25 498.18 220.09 494.27 215.21 486.58
  Q 211.36 480.51 208.15 477.15
  Q 206.19 475.10 204.45 475.30
  A 0.58 0.58 0.0 0 0 203.95 476.00"
/>
<path stroke="#6c300a" vector-effect="non-scaling-stroke" d="
  M 404.22 612.64
  A 0.94 0.94 0.0 0 0 404.97 613.77
  C 413.35 615.31 419.97 608.17 421.14 600.52
  C 422.46 591.79 418.58 581.08 408.87 579.67
  Q 406.81 579.36 404.68 580.63
  C 399.16 583.88 403.99 588.87 404.93 593.15
  C 406.65 600.94 405.72 605.56 404.22 612.64"
/>
<path stroke="#6c300a" vector-effect="non-scaling-stroke" d="
  M 257.85 613.38
  C 256.06 606.27 254.94 601.63 256.38 593.69
  C 257.17 589.32 261.87 584.09 256.16 581.01
  Q 253.95 579.81 251.88 580.20
  C 242.11 582.00 238.60 592.98 240.27 601.76
  C 241.74 609.46 248.71 616.43 257.13 614.55
  A 0.95 0.95 0.0 0 0 257.85 613.38"
/>
<path stroke="#6c300a" vector-effect="non-scaling-stroke" d="
  M 284.70 617.01
  C 284.82 614.24 284.31 609.30 285.13 605.35
  Q 285.68 602.70 287.45 595.03
  Q 288.56 590.21 286.74 586.37
  C 284.85 582.40 280.12 580.76 276.27 582.77
  Q 270.08 586.00 268.55 592.99
  Q 265.68 606.14 274.31 615.57
  Q 277.86 619.46 282.86 618.96
  A 2.05 2.05 0.0 0 0 284.70 617.01"
/>
<path stroke="#6c300a" vector-effect="non-scaling-stroke" d="
  M 377.18 618.88
  A 0.61 0.61 0.0 0 0 377.74 619.50
  C 385.21 620.14 391.42 613.47 393.29 606.83
  C 395.45 599.15 394.46 588.23 387.23 583.59
  Q 380.75 579.44 375.92 585.40
  Q 373.35 588.57 374.32 592.23
  Q 377.10 602.70 377.25 603.57
  A 9.55 9.38 -50.8 0 1 377.46 605.82
  L 377.18 618.88"
/>
</g>
<path fill="#f99217" d="
  M 344.70 120.90
  Q 340.35 120.74 335.89 120.55
  C 328.48 120.23 321.07 120.93 313.39 121.06
  Q 318.22 107.86 318.62 101.06
  Q 319.01 94.22 318.93 86.35
  A 0.52 0.51 60.6 0 0 317.98 86.08
  Q 314.68 91.42 312.08 95.22
  Q 309.76 98.60 305.18 103.61
  Q 295.70 114.00 284.98 124.78
  Q 271.50 127.34 257.11 132.09
  Q 251.52 133.94 248.60 133.89
  Q 244.26 133.82 240.12 131.88
  Q 243.28 128.09 246.38 124.88
  Q 255.15 115.82 270.05 99.81
  C 281.26 87.76 292.15 73.00 296.46 56.57
  Q 298.45 48.98 298.08 42.93
  C 297.43 32.15 292.33 21.98 284.95 14.11
  A 0.84 0.84 0.0 0 1 285.54 12.70
  Q 290.35 12.56 295.62 14.63
  C 320.72 24.49 344.95 46.17 350.54 73.52
  C 353.58 88.35 349.91 106.08 344.70 120.90
  Z"
/>
<path fill="#f99217" d="
  M 412.95 132.70
  Q 412.13 133.20 410.95 132.82
  Q 388.48 125.76 365.23 122.48
  L 365.21 122.10
  Q 366.28 122.30 366.97 121.67
  Q 374.15 115.11 381.23 108.50
  Q 399.38 91.55 392.01 67.22
  A 0.44 0.44 0.0 0 1 392.56 66.68
  C 394.78 67.38 395.91 68.47 397.60 69.86
  C 412.65 82.24 421.59 99.84 417.40 119.58
  Q 416.07 125.86 412.95 132.70
  Z"
/>
<path fill="#feb31d" d="
  M 313.39 121.06
  L 284.98 124.78
  Q 295.70 114.00 305.18 103.61
  Q 309.76 98.60 312.08 95.22
  Q 314.68 91.42 317.98 86.08
  A 0.52 0.51 60.6 0 1 318.93 86.35
  Q 319.01 94.22 318.62 101.06
  Q 318.22 107.86 313.39 121.06
  Z"
/>
<path fill="#060407" d="
  M 202.13 113.78
  Q 202.19 113.93 202.25 114.08
  A 1.22 1.22 0.0 0 0 202.65 114.59
  Q 208.82 119.06 215.49 122.75
  Q 215.89 122.97 216.30 122.66
  Q 216.70 122.93 217.01 123.52
  A 0.91 0.90 72.8 0 0 217.93 124.01
  Q 218.80 123.91 219.03 124.63
  A 0.58 0.57 -17.1 0 0 219.74 125.00
  Q 220.78 124.70 220.98 125.57
  A 0.68 0.68 0.0 0 0 221.42 126.05
  L 236.59 131.36
  A 0.14 0.11 -7.0 0 1 236.64 131.39
  Q 237.91 132.40 240.12 131.88
  Q 244.26 133.82 248.60 133.89
  Q 251.52 133.94 257.11 132.09
  Q 271.50 127.34 284.98 124.78
  L 313.39 121.06
  C 321.07 120.93 328.48 120.23 335.89 120.55
  Q 340.35 120.74 344.70 120.90
  L 364.01 122.01
  Q 364.63 122.52 365.23 122.48
  Q 388.48 125.76 410.95 132.82
  Q 412.13 133.20 412.95 132.70
  Q 414.11 135.08 418.08 133.56
  A 4.30 4.11 27.8 0 1 418.78 133.36
  Q 436.51 129.98 450.87 122.33
  Q 469.15 112.58 484.64 96.88
  Q 487.06 94.43 489.91 92.68
  C 494.34 89.94 496.85 96.00 498.13 99.35
  Q 504.58 116.17 502.42 134.74
  Q 500.87 148.06 492.87 158.39
  Q 486.05 167.19 477.41 173.09
  A 0.48 0.47 52.5 0 0 477.32 173.80
  Q 499.69 199.00 509.80 231.67
  Q 517.46 256.40 517.98 282.51
  Q 518.20 293.40 516.86 303.62
  A 4.36 4.26 60.2 0 1 516.58 304.70
  C 515.62 307.10 516.60 309.10 515.25 311.06
  Q 514.79 311.72 514.99 313.98
  A 0.93 0.93 0.0 0 1 514.54 314.86
  Q 514.39 314.95 514.37 314.97
  A 1.16 1.15 -24.6 0 0 513.96 316.07
  Q 514.21 317.45 513.31 318.00
  A 0.66 0.66 0.0 0 0 512.98 318.57
  L 512.98 320.22
  A 0.71 0.69 75.4 0 1 512.63 320.83
  Q 511.65 321.40 512.02 323.23
  A 0.60 0.59 -11.6 0 1 511.55 323.93
  Q 510.81 324.07 511.02 325.21
  A 0.64 0.63 -12.0 0 1 510.54 325.94
  Q 509.78 326.11 510.02 327.22
  A 0.60 0.60 0.0 0 1 509.62 327.92
  Q 508.66 328.25 508.97 329.34
  A 1.01 0.94 13.7 0 0 509.29 329.83
  Q 510.35 330.72 510.83 332.07
  Q 521.53 345.06 528.95 360.45
  Q 540.24 383.93 542.04 410.77
  Q 542.14 420.25 542.05 424.50
  Q 541.28 461.95 521.55 493.33
  Q 507.84 515.13 487.19 532.18
  Q 485.80 533.34 484.36 533.81
  A 0.63 0.62 -22.2 0 1 483.61 533.50
  Q 482.56 531.44 482.22 529.12
  Q 482.92 528.97 483.12 529.60
  Q 483.55 530.96 484.00 532.09
  A 0.71 0.70 59.5 0 0 485.10 532.38
  Q 499.40 520.98 510.73 506.91
  Q 518.70 497.02 523.65 487.83
  Q 530.46 475.20 533.40 466.92
  Q 538.33 453.02 539.96 438.48
  Q 541.68 423.03 541.22 415.05
  Q 540.89 409.48 540.07 402.71
  Q 535.81 367.82 514.63 338.64
  C 512.46 335.64 510.24 333.86 508.42 330.81
  A 3.64 3.64 0.0 0 1 508.38 327.17
  Q 510.67 323.13 511.98 318.72
  Q 513.13 314.87 515.40 304.53
  Q 516.01 301.73 516.41 296.26
  Q 517.33 283.34 516.63 278.73
  C 516.05 274.98 516.72 270.97 515.87 266.83
  Q 515.62 265.63 515.03 261.14
  Q 512.01 238.13 503.30 217.21
  Q 501.18 212.14 498.79 207.60
  Q 495.07 200.53 493.75 198.25
  C 489.08 190.22 482.86 182.57 476.45 174.50
  A 1.83 1.82 -37.4 0 1 476.80 171.90
  Q 483.19 167.19 487.95 162.16
  Q 493.56 156.24 496.36 150.07
  C 499.48 143.19 501.13 138.03 501.36 130.23
  Q 501.62 121.58 501.14 116.01
  Q 500.31 106.49 495.26 95.59
  C 493.32 91.42 489.01 93.85 486.88 96.13
  Q 472.16 111.87 452.60 122.59
  Q 439.28 129.89 424.13 133.41
  C 418.95 134.61 415.25 135.65 411.20 134.30
  Q 389.19 127.01 367.27 124.03
  Q 354.71 122.32 348.99 122.01
  Q 344.76 121.77 328.66 121.81
  Q 316.78 121.83 308.36 122.68
  Q 289.53 124.57 271.48 128.91
  Q 262.63 131.03 253.73 134.60
  A 4.21 4.04 29.0 0 1 252.71 134.87
  Q 248.55 135.42 246.49 135.00
  Q 222.37 130.03 203.52 116.72
  Q 201.01 114.95 195.74 110.85
  C 188.91 105.51 183.19 99.12 176.97 93.00
  C 172.85 88.95 169.60 91.24 167.65 95.65
  Q 161.97 108.47 161.92 122.55
  Q 161.82 154.18 188.17 171.20
  A 1.64 1.64 0.0 0 1 188.47 173.70
  C 169.60 193.69 158.43 219.27 152.22 245.66
  Q 150.06 254.86 148.34 269.62
  Q 147.71 275.09 147.79 278.94
  C 147.97 287.19 147.70 294.47 148.69 302.22
  Q 150.14 313.45 153.71 324.47
  A 3.57 3.57 0.0 0 1 152.94 328.00
  Q 143.84 337.87 136.66 350.40
  C 129.00 363.76 124.33 376.46 121.55 390.75
  Q 119.36 401.99 118.96 410.49
  Q 118.52 419.56 119.30 433.23
  C 119.52 437.07 120.51 442.26 121.65 448.19
  Q 125.74 469.40 136.97 488.55
  Q 148.50 508.21 165.04 523.94
  Q 177.74 536.02 187.73 542.77
  C 197.01 549.05 201.65 552.08 205.05 554.70
  Q 206.21 555.60 207.63 557.13
  Q 214.98 565.03 223.97 570.52
  Q 228.76 573.44 232.14 575.48
  Q 232.53 575.71 232.46 576.14
  Q 232.35 576.88 231.15 577.08
  L 210.98 562.58
  Q 206.23 556.61 201.76 553.25
  C 197.46 550.02 189.88 545.64 182.94 540.50
  C 180.83 538.93 178.51 537.77 176.70 535.72
  A 2.46 2.39 -0.9 0 0 176.37 535.41
  L 169.94 530.66
  L 154.08 514.17
  Q 145.88 504.43 140.79 496.96
  Q 121.17 468.17 118.17 433.46
  Q 117.59 423.11 117.58 420.00
  Q 117.53 405.57 120.18 390.82
  Q 124.79 368.31 135.71 349.96
  Q 138.70 344.94 143.41 338.02
  L 152.50 326.79
  A 1.75 1.74 55.1 0 0 152.79 325.15
  Q 148.05 310.84 146.80 296.46
  Q 147.25 294.29 146.54 292.76
  L 146.47 280.42
  Q 147.08 266.44 149.37 252.56
  Q 149.82 249.83 150.69 246.34
  Q 151.47 243.20 152.17 240.17
  Q 156.16 226.68 159.14 218.88
  C 165.27 202.81 175.30 186.06 187.82 173.12
  A 0.67 0.67 0.0 0 0 187.68 172.09
  Q 178.86 166.85 172.01 157.76
  Q 168.82 153.54 166.46 150.06
  Q 165.14 146.83 164.05 143.94
  Q 162.74 140.48 162.17 137.66
  Q 157.68 115.44 166.59 94.86
  C 167.65 92.43 170.28 89.28 173.20 89.75
  C 175.27 90.08 177.81 92.16 179.37 93.80
  Q 188.89 103.79 197.00 110.49
  A 2.94 2.70 -10.6 0 0 197.45 110.77
  Q 199.43 111.71 201.32 113.70
  Q 201.65 114.04 202.13 113.78
  Z"
/>
<path fill="#4f2414" d="
  M 482.22 529.12
  Q 481.88 529.12 481.38 528.76
  Q 481.24 527.64 480.10 529.29
  Q 466.46 549.14 446.83 564.31
  Q 438.27 570.93 428.63 575.49
  A 1.69 1.69 0.0 0 0 428.02 578.06
  C 432.69 584.01 433.50 588.99 434.92 597.67
  A 3.16 3.03 -47.4 0 1 434.94 598.66
  Q 433.83 606.83 430.36 613.76
  A 0.96 0.80 84.8 0 1 430.27 613.89
  L 425.33 620.29
  Q 411.11 632.99 396.40 624.20
  A 0.68 0.67 36.8 0 0 395.56 624.32
  Q 389.70 630.56 381.74 631.88
  Q 368.09 634.16 362.01 621.77
  Q 361.12 619.97 359.87 614.50
  A 0.55 0.55 0.0 0 0 359.26 614.08
  Q 346.65 615.71 342.75 615.82
  Q 320.81 616.45 311.52 615.64
  Q 303.21 614.90 301.72 614.97
  A 0.83 0.83 0.0 0 0 300.98 615.49
  C 298.64 621.18 297.05 626.21 292.42 629.68
  Q 289.08 632.19 284.03 632.55
  Q 274.45 633.25 266.78 625.30
  A 1.35 1.34 52.4 0 0 265.11 625.08
  C 254.17 631.79 240.33 626.82 232.90 617.07
  Q 229.45 612.53 228.28 608.57
  Q 227.69 606.57 227.38 606.27
  A 1.00 0.96 21.9 0 1 227.09 605.63
  Q 227.02 604.35 227.02 603.71
  C 227.02 602.56 225.74 601.59 226.11 599.82
  Q 227.14 598.10 227.15 597.27
  Q 227.31 587.01 233.13 577.62
  L 231.15 577.08
  Q 232.35 576.88 232.46 576.14
  Q 232.53 575.71 232.14 575.48
  Q 228.76 573.44 223.97 570.52
  Q 214.98 565.03 207.63 557.13
  Q 206.21 555.60 205.05 554.70
  C 201.65 552.08 197.01 549.05 187.73 542.77
  Q 177.74 536.02 165.04 523.94
  Q 148.50 508.21 136.97 488.55
  Q 125.74 469.40 121.65 448.19
  C 120.51 442.26 119.52 437.07 119.30 433.23
  Q 118.52 419.56 118.96 410.49
  Q 119.36 401.99 121.55 390.75
  C 124.33 376.46 129.00 363.76 136.66 350.40
  Q 143.84 337.87 152.94 328.00
  A 3.57 3.57 0.0 0 0 153.71 324.47
  Q 150.14 313.45 148.69 302.22
  C 147.70 294.47 147.97 287.19 147.79 278.94
  Q 147.71 275.09 148.34 269.62
  Q 150.06 254.86 152.22 245.66
  C 158.43 219.27 169.60 193.69 188.47 173.70
  A 1.64 1.64 0.0 0 0 188.17 171.20
  Q 161.82 154.18 161.92 122.55
  Q 161.97 108.47 167.65 95.65
  C 169.60 91.24 172.85 88.95 176.97 93.00
  C 183.19 99.12 188.91 105.51 195.74 110.85
  Q 201.01 114.95 203.52 116.72
  Q 222.37 130.03 246.49 135.00
  Q 248.55 135.42 252.71 134.87
  A 4.21 4.04 29.0 0 0 253.73 134.60
  Q 262.63 131.03 271.48 128.91
  Q 289.53 124.57 308.36 122.68
  Q 316.78 121.83 328.66 121.81
  Q 344.76 121.77 348.99 122.01
  Q 354.71 122.32 367.27 124.03
  Q 389.19 127.01 411.20 134.30
  C 415.25 135.65 418.95 134.61 424.13 133.41
  Q 439.28 129.89 452.60 122.59
  Q 472.16 111.87 486.88 96.13
  C 489.01 93.85 493.32 91.42 495.26 95.59
  Q 500.31 106.49 501.14 116.01
  Q 501.62 121.58 501.36 130.23
  C 501.13 138.03 499.48 143.19 496.36 150.07
  Q 493.56 156.24 487.95 162.16
  Q 483.19 167.19 476.80 171.90
  A 1.83 1.82 -37.4 0 0 476.45 174.50
  C 482.86 182.57 489.08 190.22 493.75 198.25
  Q 495.07 200.53 498.79 207.60
  Q 501.18 212.14 503.30 217.21
  Q 512.01 238.13 515.03 261.14
  Q 515.62 265.63 515.87 266.83
  C 516.72 270.97 516.05 274.98 516.63 278.73
  Q 517.33 283.34 516.41 296.26
  Q 516.01 301.73 515.40 304.53
  Q 513.13 314.87 511.98 318.72
  Q 510.67 323.13 508.38 327.17
  A 3.64 3.64 0.0 0 0 508.42 330.81
  C 510.24 333.86 512.46 335.64 514.63 338.64
  Q 535.81 367.82 540.07 402.71
  Q 540.89 409.48 541.22 415.05
  Q 541.68 423.03 539.96 438.48
  Q 538.33 453.02 533.40 466.92
  Q 530.46 475.20 523.65 487.83
  Q 518.70 497.02 510.73 506.91
  Q 499.40 520.98 485.10 532.38
  A 0.71 0.70 59.5 0 1 484.00 532.09
  Q 483.55 530.96 483.12 529.60
  Q 482.92 528.97 482.22 529.12
  Z
  M 404.66 355.39
  C 418.94 354.38 433.07 351.01 445.33 344.07
  Q 458.70 336.50 468.13 326.67
  Q 478.65 315.71 484.47 303.11
  C 488.93 293.46 492.05 282.07 492.64 270.92
  Q 493.12 262.02 493.12 262.01
  Q 493.20 230.47 474.41 207.08
  C 466.17 196.83 455.91 189.30 444.17 184.38
  Q 427.57 177.43 409.70 181.80
  Q 396.72 184.97 385.74 191.99
  Q 375.89 198.30 370.44 203.21
  Q 370.17 203.44 364.76 208.50
  C 355.19 217.44 346.88 228.14 339.97 239.21
  Q 334.45 248.04 333.48 249.76
  A 0.75 0.75 0.0 0 1 332.14 249.70
  Q 328.43 241.59 324.07 235.20
  Q 316.14 223.61 306.96 212.91
  Q 303.54 208.91 299.01 205.15
  Q 290.64 198.20 290.43 198.05
  Q 276.04 187.52 260.56 182.77
  Q 245.04 178.01 228.51 182.01
  Q 224.06 183.09 218.07 186.04
  Q 211.28 189.40 208.32 191.59
  Q 194.33 201.98 185.01 217.02
  Q 177.86 228.56 175.14 241.57
  Q 173.42 249.81 172.92 258.99
  C 172.66 263.87 173.08 266.99 173.49 272.99
  C 175.08 296.14 187.77 318.05 205.50 332.75
  C 207.40 334.32 211.00 336.81 213.38 338.59
  C 227.37 349.07 246.87 354.48 264.80 355.49
  A 0.34 0.34 0.0 0 1 264.85 356.16
  Q 242.08 361.19 218.90 358.33
  C 216.92 358.09 214.99 356.97 213.10 357.51
  A 1.36 1.35 -84.3 0 0 212.25 358.21
  C 203.59 375.93 198.97 393.92 196.77 413.63
  Q 196.07 419.92 196.11 428.40
  C 196.15 438.01 195.70 444.22 196.78 452.25
  Q 196.97 453.59 198.08 461.22
  C 202.11 488.79 213.22 515.42 231.92 535.82
  Q 260.47 566.97 302.24 574.49
  Q 304.16 574.83 310.92 575.83
  Q 315.73 576.54 319.63 576.71
  Q 336.59 577.47 352.01 576.28
  C 383.09 573.87 413.31 559.56 434.41 536.45
  Q 457.82 510.79 467.07 476.36
  Q 471.91 458.31 473.00 437.88
  C 474.45 410.63 471.05 383.51 458.90 359.48
  A 2.80 2.79 -17.1 0 0 456.04 357.97
  Q 433.72 360.97 410.37 357.34
  Q 408.11 356.99 404.60 356.01
  A 0.32 0.32 0.0 0 1 404.66 355.39
  Z
  M 172.86 363.26
  Q 166.60 368.67 161.51 375.23
  C 148.38 392.11 139.82 413.67 140.57 435.71
  A 0.30 0.30 0.0 0 0 141.13 435.84
  C 142.85 432.59 144.30 430.13 145.39 427.23
  Q 150.18 414.56 152.79 408.05
  C 156.57 398.58 162.53 387.87 166.50 378.80
  Q 170.75 369.11 173.33 363.62
  A 0.30 0.30 0.0 0 0 172.86 363.26
  Z
  M 501.80 380.91
  Q 503.17 386.31 503.41 387.00
  Q 508.77 402.65 510.68 410.55
  Q 515.26 429.50 518.38 443.97
  A 0.45 0.45 0.0 0 0 519.25 444.03
  Q 520.20 441.47 520.54 438.54
  Q 522.51 421.60 517.26 406.93
  C 514.09 398.08 508.70 387.44 502.10 380.74
  A 0.18 0.18 0.0 0 0 501.80 380.91
  Z
  M 168.77 418.57
  Q 165.40 422.88 162.57 430.63
  Q 157.29 445.09 156.13 458.10
  C 154.83 472.67 158.79 494.65 171.64 504.68
  A 0.36 0.35 -75.5 0 0 172.21 504.34
  C 170.77 494.81 169.29 487.00 168.58 477.86
  Q 166.56 451.60 168.98 425.21
  Q 169.16 423.31 169.25 418.74
  A 0.27 0.27 0.0 0 0 168.77 418.57
  Z
  M 497.16 496.93
  C 499.90 492.38 502.61 487.50 502.62 482.64
  Q 502.64 473.79 503.09 467.35
  A 0.20 0.19 -83.6 0 0 502.93 467.14
  L 502.65 467.09
  A 0.24 0.23 10.9 0 0 502.37 467.27
  L 496.63 496.72
  A 0.29 0.29 0.0 0 0 497.16 496.93
  Z
  M 405.15 614.65
  C 414.43 616.11 421.72 608.10 422.72 599.56
  C 423.73 590.96 418.94 580.79 409.78 578.87
  Q 404.72 577.80 402.46 581.24
  Q 400.40 584.37 401.56 587.14
  Q 406.78 599.56 403.32 610.94
  Q 402.71 612.95 404.28 614.25
  A 1.80 1.80 0.0 0 0 405.15 614.65
  Z
  M 257.18 615.56
  C 258.98 614.94 258.92 612.33 258.43 610.82
  C 256.12 603.76 255.92 597.17 258.50 590.79
  C 259.70 587.83 261.05 585.30 259.61 583.14
  C 254.91 576.10 246.18 579.13 242.51 585.01
  Q 239.78 589.39 239.34 591.84
  C 238.54 596.25 238.69 603.16 240.98 607.05
  C 244.35 612.77 250.15 618.01 257.18 615.56
  Z
  M 281.72 620.05
  Q 284.47 620.01 285.58 618.01
  A 2.12 2.05 62.5 0 0 285.85 617.10
  C 286.07 613.91 285.65 609.60 286.26 605.67
  C 287.01 600.83 290.36 592.54 288.35 587.46
  Q 285.78 580.97 279.80 580.86
  C 276.68 580.80 272.65 583.17 270.98 585.55
  Q 263.57 596.07 268.54 608.61
  C 270.61 613.83 275.50 620.15 281.72 620.05
  Z
  M 377.41 620.47
  Q 382.28 621.10 386.62 618.10
  C 397.96 610.27 399.48 589.11 386.58 582.05
  C 380.47 578.71 374.50 582.86 373.27 588.76
  Q 372.75 591.22 374.49 597.28
  Q 376.32 603.72 376.67 608.07
  A 2.84 1.74 -64.1 0 1 376.67 608.42
  L 376.03 618.81
  A 1.59 1.58 5.4 0 0 377.41 620.47
  Z"
/>
<path fill="#f99217" d="
  M 216.30 122.66
  Q 215.89 122.97 215.49 122.75
  Q 208.82 119.06 202.65 114.59
  A 1.22 1.22 0.0 0 1 202.25 114.08
  Q 202.19 113.93 202.13 113.78
  Q 202.26 113.44 202.47 113.28
  Q 211.81 106.42 219.63 102.14
  Q 225.54 98.91 231.20 97.25
  A 0.36 0.36 0.0 0 1 231.58 97.82
  Q 222.80 108.90 216.64 121.40
  Q 216.35 121.99 216.30 122.66
  Z"
/>
<path fill="#683013" d="
  M 365.21 122.10
  L 365.23 122.48
  Q 364.63 122.52 364.01 122.01
  L 365.21 122.10
  Z"
/>
<path fill="#f99217" d="
  M 152.17 240.17
  Q 148.76 227.40 148.00 218.75
  Q 145.61 191.55 156.80 167.56
  Q 160.40 159.85 166.46 150.06
  Q 168.82 153.54 172.01 157.76
  Q 178.86 166.85 187.68 172.09
  A 0.67 0.67 0.0 0 1 187.82 173.12
  C 175.30 186.06 165.27 202.81 159.14 218.88
  Q 156.16 226.68 152.17 240.17
  Z"
/>
<path fill="#060407" d="
  M 404.66 355.39
  A 0.32 0.32 0.0 0 0 404.60 356.01
  Q 408.11 356.99 410.37 357.34
  Q 433.72 360.97 456.04 357.97
  A 2.80 2.79 -17.1 0 1 458.90 359.48
  C 471.05 383.51 474.45 410.63 473.00 437.88
  Q 471.91 458.31 467.07 476.36
  Q 457.82 510.79 434.41 536.45
  C 413.31 559.56 383.09 573.87 352.01 576.28
  Q 336.59 577.47 319.63 576.71
  Q 315.73 576.54 310.92 575.83
  Q 304.16 574.83 302.24 574.49
  Q 260.47 566.97 231.92 535.82
  C 213.22 515.42 202.11 488.79 198.08 461.22
  Q 196.97 453.59 196.78 452.25
  C 195.70 444.22 196.15 438.01 196.11 428.40
  Q 196.07 419.92 196.77 413.63
  C 198.97 393.92 203.59 375.93 212.25 358.21
  A 1.36 1.35 -84.3 0 1 213.10 357.51
  C 214.99 356.97 216.92 358.09 218.90 358.33
  Q 242.08 361.19 264.85 356.16
  A 0.34 0.34 0.0 0 0 264.80 355.49
  C 246.87 354.48 227.37 349.07 213.38 338.59
  C 211.00 336.81 207.40 334.32 205.50 332.75
  C 187.77 318.05 175.08 296.14 173.49 272.99
  C 173.08 266.99 172.66 263.87 172.92 258.99
  Q 173.42 249.81 175.14 241.57
  Q 177.86 228.56 185.01 217.02
  Q 194.33 201.98 208.32 191.59
  Q 211.28 189.40 218.07 186.04
  Q 224.06 183.09 228.51 182.01
  Q 245.04 178.01 260.56 182.77
  Q 276.04 187.52 290.43 198.05
  Q 290.64 198.20 299.01 205.15
  Q 303.54 208.91 306.96 212.91
  Q 316.14 223.61 324.07 235.20
  Q 328.43 241.59 332.14 249.70
  A 0.75 0.75 0.0 0 0 333.48 249.76
  Q 334.45 248.04 339.97 239.21
  C 346.88 228.14 355.19 217.44 364.76 208.50
  Q 370.17 203.44 370.44 203.21
  Q 375.89 198.30 385.74 191.99
  Q 396.72 184.97 409.70 181.80
  Q 427.57 177.43 444.17 184.38
  C 455.91 189.30 466.17 196.83 474.41 207.08
  Q 493.20 230.47 493.12 262.01
  Q 493.12 262.02 492.64 270.92
  C 492.05 282.07 488.93 293.46 484.47 303.11
  Q 478.65 315.71 468.13 326.67
  Q 458.70 336.50 445.33 344.07
  C 433.07 351.01 418.94 354.38 404.66 355.39
  Z
  M 174.17 258.28
  Q 172.32 295.80 196.97 323.09
  C 218.30 346.40 248.17 357.00 279.81 353.38
  Q 270.42 356.35 261.36 358.14
  Q 242.57 361.84 222.81 359.93
  Q 218.27 359.49 213.89 358.26
  A 0.81 0.81 0.0 0 0 212.94 358.70
  Q 199.99 386.40 197.63 417.17
  C 194.85 453.36 201.45 491.66 221.71 521.29
  Q 248.72 560.81 295.82 572.14
  C 316.97 577.23 340.49 577.24 361.38 574.13
  Q 375.97 571.96 390.63 565.89
  Q 421.28 553.20 441.12 527.11
  Q 458.54 504.21 465.95 475.98
  Q 476.42 436.08 469.45 395.52
  Q 466.19 376.54 457.99 359.94
  A 1.87 1.86 -17.8 0 0 456.01 358.93
  Q 445.53 360.68 436.08 360.64
  Q 413.58 360.53 392.39 354.34
  A 0.34 0.33 25.1 0 1 392.20 353.83
  Q 392.28 353.71 392.85 353.83
  Q 413.67 355.73 433.60 348.32
  Q 451.75 341.41 463.83 329.56
  C 472.92 320.66 480.13 311.20 484.53 300.29
  Q 493.34 278.46 491.57 254.77
  Q 489.47 226.60 471.75 205.76
  C 464.05 196.70 452.91 188.48 442.02 184.73
  Q 421.55 177.66 400.77 185.80
  C 371.18 197.39 348.55 224.13 334.04 251.25
  Q 333.77 252.03 333.23 252.55
  A 0.44 0.43 54.5 0 1 332.54 252.43
  L 332.05 251.47
  C 321.41 230.08 305.95 210.26 286.28 196.40
  Q 276.92 189.91 265.40 185.60
  Q 239.62 175.94 215.58 188.67
  Q 203.71 194.96 194.88 205.15
  Q 175.21 227.85 174.17 258.28
  Z"
/>
<path fill="#feb31d" d="
  M 286.28 196.40
  Q 286.10 197.51 285.57 197.16
  Q 277.78 191.93 267.30 187.66
  Q 256.97 183.45 247.33 183.09
  Q 234.96 182.62 226.46 185.21
  Q 208.97 190.54 195.66 206.11
  Q 186.19 217.18 181.25 230.00
  Q 178.41 237.38 176.41 248.10
  C 175.66 252.10 176.03 255.80 175.43 259.69
  A 0.60 0.60 0.0 0 1 174.26 259.77
  Q 174.08 259.18 174.17 258.28
  Q 175.21 227.85 194.88 205.15
  Q 203.71 194.96 215.58 188.67
  Q 239.62 175.94 265.40 185.60
  Q 276.92 189.91 286.28 196.40
  Z"
/>
<path fill="#feb31d" d="
  M 433.60 348.32
  L 432.35 348.35
  A 0.33 0.32 33.8 0 1 432.22 347.72
  Q 449.18 341.22 462.61 328.98
  Q 475.13 317.57 481.94 302.79
  Q 489.01 287.47 490.16 271.21
  Q 490.95 260.11 489.52 247.91
  Q 487.16 232.40 479.67 219.15
  Q 478.04 216.26 474.97 212.12
  Q 471.32 207.19 469.82 205.43
  Q 465.53 200.39 457.61 194.58
  Q 437.87 180.12 413.72 183.68
  Q 409.45 184.31 403.44 186.19
  Q 396.43 188.38 393.59 190.09
  Q 387.85 193.54 383.67 195.98
  Q 381.95 196.99 380.18 198.29
  Q 369.70 205.78 361.58 214.58
  Q 346.65 230.75 335.69 250.91
  A 0.75 0.74 15.2 0 1 335.00 251.30
  L 334.04 251.25
  C 348.55 224.13 371.18 197.39 400.77 185.80
  Q 421.55 177.66 442.02 184.73
  C 452.91 188.48 464.05 196.70 471.75 205.76
  Q 489.47 226.60 491.57 254.77
  Q 493.34 278.46 484.53 300.29
  C 480.13 311.20 472.92 320.66 463.83 329.56
  Q 451.75 341.41 433.60 348.32
  Z"
/>
<path fill="#eb7d15" d="
  M 286.28 196.40
  C 305.95 210.26 321.41 230.08 332.05 251.47
  Q 330.17 250.90 329.10 248.85
  Q 319.12 229.62 302.95 212.48
  Q 301.25 210.69 299.18 209.95
  Q 293.16 207.79 286.90 202.62
  C 284.20 200.40 281.35 199.21 277.91 198.87
  A 1.53 1.53 0.0 0 0 276.27 200.09
  L 275.74 202.82
  A 0.98 0.95 25.6 0 0 276.08 203.75
  Q 285.59 211.39 292.76 217.82
  C 296.63 221.30 299.57 224.84 301.62 230.43
  Q 302.82 233.70 306.98 243.34
  C 310.36 251.15 310.52 258.40 310.02 267.63
  C 309.71 273.31 307.72 277.67 304.55 281.83
  Q 299.26 288.76 296.99 292.02
  Q 296.21 293.14 295.00 297.40
  C 293.76 301.75 292.55 302.76 289.16 306.33
  Q 277.28 318.83 259.59 319.07
  Q 246.75 319.24 232.87 318.35
  A 1.88 1.87 -24.4 0 1 231.88 317.98
  C 227.73 314.84 221.71 312.34 218.90 310.32
  C 215.68 308.01 212.78 304.51 206.38 297.80
  C 201.26 292.44 193.51 294.80 187.79 297.45
  Q 185.56 298.48 184.51 301.51
  A 1.36 1.36 0.0 0 0 184.54 302.48
  Q 185.60 305.03 186.82 306.99
  Q 191.68 314.81 196.23 320.22
  Q 196.96 321.08 197.34 321.82
  Q 198.15 323.36 196.97 323.09
  Q 172.32 295.80 174.17 258.28
  Q 174.08 259.18 174.26 259.77
  A 0.60 0.60 0.0 0 0 175.43 259.69
  C 176.03 255.80 175.66 252.10 176.41 248.10
  Q 178.41 237.38 181.25 230.00
  Q 186.19 217.18 195.66 206.11
  Q 208.97 190.54 226.46 185.21
  Q 234.96 182.62 247.33 183.09
  Q 256.97 183.45 267.30 187.66
  Q 277.78 191.93 285.57 197.16
  Q 286.10 197.51 286.28 196.40
  Z
  M 198.66 263.61
  C 200.53 294.18 224.23 318.92 256.01 316.35
  C 285.93 313.93 307.61 286.32 305.82 257.06
  C 304.04 227.81 279.16 203.04 249.16 204.28
  C 217.31 205.60 196.79 233.04 198.66 263.61
  Z"
/>
<path fill="#eb7d15" d="
  M 489.52 247.91
  C 484.08 241.62 481.04 239.42 472.58 240.94
  Q 470.47 241.32 470.42 241.27
  A 0.15 0.15 0.0 0 0 470.16 241.40
  L 471.16 248.37
  A 10.32 9.87 45.4 0 1 471.20 250.98
  Q 470.13 260.41 470.18 269.23
  C 470.19 272.58 469.51 277.10 468.22 279.26
  Q 464.72 285.07 462.20 291.10
  A 16.90 16.86 -15.1 0 1 460.07 294.79
  Q 456.84 299.04 452.08 304.92
  C 448.21 309.69 441.26 312.91 435.49 315.17
  C 429.88 317.37 426.20 319.22 421.54 316.09
  C 449.55 311.40 467.81 286.65 467.03 258.85
  C 466.37 235.34 450.65 212.99 428.10 206.38
  C 395.64 196.87 365.48 219.87 360.52 251.84
  Q 357.71 237.32 366.76 226.32
  Q 376.23 214.81 389.62 207.16
  A 1.30 1.30 0.0 0 0 390.05 205.30
  C 387.78 201.94 385.05 197.52 380.18 198.29
  Q 381.95 196.99 383.67 195.98
  Q 387.85 193.54 393.59 190.09
  Q 396.43 188.38 403.44 186.19
  Q 409.45 184.31 413.72 183.68
  Q 437.87 180.12 457.61 194.58
  Q 465.53 200.39 469.82 205.43
  Q 471.32 207.19 474.97 212.12
  Q 478.04 216.26 479.67 219.15
  Q 487.16 232.40 489.52 247.91
  Z"
/>
<path fill="#e37212" d="
  M 360.52 251.84
  Q 357.14 278.97 374.13 298.62
  Q 392.38 319.72 421.54 316.09
  C 426.20 319.22 429.88 317.37 435.49 315.17
  C 441.26 312.91 448.21 309.69 452.08 304.92
  Q 456.84 299.04 460.07 294.79
  A 16.90 16.86 -15.1 0 0 462.20 291.10
  Q 464.72 285.07 468.22 279.26
  C 469.51 277.10 470.19 272.58 470.18 269.23
  Q 470.13 260.41 471.20 250.98
  A 10.32 9.87 45.4 0 0 471.16 248.37
  L 470.16 241.40
  A 0.15 0.15 0.0 0 1 470.42 241.27
  Q 470.47 241.32 472.58 240.94
  C 481.04 239.42 484.08 241.62 489.52 247.91
  Q 490.95 260.11 490.16 271.21
  Q 489.01 287.47 481.94 302.79
  Q 475.13 317.57 462.61 328.98
  Q 449.18 341.22 432.22 347.72
  A 0.33 0.32 33.8 0 0 432.35 348.35
  L 433.60 348.32
  Q 413.67 355.73 392.85 353.83
  Q 389.97 352.90 383.70 351.54
  Q 371.20 348.82 355.04 339.13
  Q 353.85 338.42 352.78 337.18
  A 1.00 1.00 0.0 0 0 351.25 337.20
  Q 350.81 337.73 343.56 346.55
  C 331.43 361.32 322.86 348.55 315.38 339.11
  A 0.63 0.62 -34.4 0 0 314.56 338.96
  Q 298.09 348.96 279.81 353.38
  C 248.17 357.00 218.30 346.40 196.97 323.09
  Q 198.15 323.36 197.34 321.82
  Q 196.96 321.08 196.23 320.22
  Q 191.68 314.81 186.82 306.99
  Q 185.60 305.03 184.54 302.48
  A 1.36 1.36 0.0 0 1 184.51 301.51
  Q 185.56 298.48 187.79 297.45
  C 193.51 294.80 201.26 292.44 206.38 297.80
  C 212.78 304.51 215.68 308.01 218.90 310.32
  C 221.71 312.34 227.73 314.84 231.88 317.98
  A 1.88 1.87 -24.4 0 0 232.87 318.35
  Q 246.75 319.24 259.59 319.07
  Q 277.28 318.83 289.16 306.33
  C 292.55 302.76 293.76 301.75 295.00 297.40
  Q 296.21 293.14 296.99 292.02
  Q 299.26 288.76 304.55 281.83
  C 307.72 277.67 309.71 273.31 310.02 267.63
  C 310.52 258.40 310.36 251.15 306.98 243.34
  Q 302.82 233.70 301.62 230.43
  C 299.57 224.84 296.63 221.30 292.76 217.82
  Q 285.59 211.39 276.08 203.75
  A 0.98 0.95 25.6 0 1 275.74 202.82
  L 276.27 200.09
  A 1.53 1.53 0.0 0 1 277.91 198.87
  C 281.35 199.21 284.20 200.40 286.90 202.62
  Q 293.16 207.79 299.18 209.95
  Q 301.25 210.69 302.95 212.48
  Q 319.12 229.62 329.10 248.85
  Q 330.17 250.90 332.05 251.47
  L 332.54 252.43
  A 0.44 0.43 54.5 0 0 333.23 252.55
  Q 333.77 252.03 334.04 251.25
  L 335.00 251.30
  A 0.75 0.74 15.2 0 0 335.69 250.91
  Q 346.65 230.75 361.58 214.58
  Q 369.70 205.78 380.18 198.29
  C 385.05 197.52 387.78 201.94 390.05 205.30
  A 1.30 1.30 0.0 0 1 389.62 207.16
  Q 376.23 214.81 366.76 226.32
  Q 357.71 237.32 360.52 251.84
  Z
  M 332.48 352.46
  C 335.66 352.46 338.51 350.30 340.71 347.94
  Q 349.32 338.68 356.11 327.40
  C 365.01 312.65 365.23 293.75 351.39 281.99
  Q 343.29 275.11 332.55 275.10
  Q 321.81 275.09 313.70 281.95
  C 299.83 293.69 300.02 312.59 308.89 327.36
  Q 315.66 338.65 324.25 347.92
  C 326.45 350.28 329.29 352.46 332.48 352.46
  Z"
/>
<path fill="#f99217" d="
  M 146.80 296.46
  Q 148.05 310.84 152.79 325.15
  A 1.75 1.74 55.1 0 1 152.50 326.79
  L 143.41 338.02
  Q 143.16 336.59 141.96 335.77
  Q 127.55 326.03 117.34 314.40
  Q 112.67 309.07 109.69 302.72
  A 0.43 0.43 0.0 0 0 108.99 302.61
  Q 108.04 303.62 107.33 305.58
  C 105.02 311.91 103.50 316.99 102.86 324.34
  Q 102.46 328.94 102.12 333.50
  C 89.11 337.92 78.65 333.12 66.88 327.20
  A 0.79 0.77 -77.3 0 1 66.45 326.50
  L 66.43 324.98
  Q 67.89 308.24 70.92 297.46
  C 80.91 261.95 100.32 232.32 125.36 204.85
  Q 126.14 203.99 126.73 203.65
  A 0.48 0.48 0.0 0 1 127.44 204.15
  Q 125.41 215.02 124.15 223.76
  Q 122.11 237.91 123.15 253.32
  Q 124.37 271.37 133.97 286.01
  Q 138.75 293.30 146.80 296.46
  Z"
/>
<path fill="#ffffff" d="
  M 305.82 257.06
  C 307.61 286.32 285.93 313.93 256.01 316.35
  C 224.23 318.92 200.53 294.18 198.66 263.61
  C 196.79 233.04 217.31 205.60 249.16 204.28
  C 279.16 203.04 304.04 227.81 305.82 257.06
  Z
  M 262.0469 231.9381
  A 30.68 29.15 -84.0 0 0 229.8497 259.4030
  A 30.68 29.15 -84.0 0 0 255.6331 292.9619
  A 30.68 29.15 -84.0 0 0 287.8303 265.4970
  A 30.68 29.15 -84.0 0 0 262.0469 231.9381
  Z"
/>
<path fill="#ffffff" d="
  M 421.54 316.09
  Q 392.38 319.72 374.13 298.62
  Q 357.14 278.97 360.52 251.84
  C 365.48 219.87 395.64 196.87 428.10 206.38
  C 450.65 212.99 466.37 235.34 467.03 258.85
  C 467.81 286.65 449.55 311.40 421.54 316.09
  Z
  M 406.2382 231.9105
  A 30.63 29.31 -91.5 0 0 377.7400 263.2972
  A 30.63 29.31 -91.5 0 0 407.8418 293.1495
  A 30.63 29.31 -91.5 0 0 436.3400 261.7628
  A 30.63 29.31 -91.5 0 0 406.2382 231.9105
  Z"
/>
<path fill="#4f2414" d="
  M 262.0469 231.9381
  A 30.68 29.15 -84.0 0 1 287.8303 265.4970
  A 30.68 29.15 -84.0 0 1 255.6331 292.9619
  A 30.68 29.15 -84.0 0 1 229.8497 259.4030
  A 30.68 29.15 -84.0 0 1 262.0469 231.9381
  Z
  M 266.7234 242.1275
  A 7.77 7.34 -103.9 0 0 261.4649 251.4333
  A 7.77 7.34 -103.9 0 0 270.4566 257.2125
  A 7.77 7.34 -103.9 0 0 275.7151 247.9067
  A 7.77 7.34 -103.9 0 0 266.7234 242.1275
  Z"
/>
<path fill="#4f2414" d="
  M 406.2382 231.9105
  A 30.63 29.31 -91.5 0 1 436.3400 261.7628
  A 30.63 29.31 -91.5 0 1 407.8418 293.1495
  A 30.63 29.31 -91.5 0 1 377.7400 263.2972
  A 30.63 29.31 -91.5 0 1 406.2382 231.9105
  Z
  M 393.48 255.01
  Q 397.79 257.72 401.62 255.62
  Q 404.79 253.88 406.15 249.08
  Q 407.44 244.64 402.58 241.36
  A 3.72 3.54 -18.4 0 0 401.58 240.89
  Q 393.80 238.68 390.84 245.10
  C 388.98 249.12 389.47 253.07 392.88 255.88
  Q 393.20 256.15 393.47 255.82
  Q 393.74 255.49 393.48 255.01
  Z"
/>
<path fill="#f99217" d="
  M 582.62 351.12
  C 569.82 349.61 559.21 349.74 547.02 353.54
  C 546.29 349.55 545.99 344.50 544.20 340.92
  A 0.43 0.43 0.0 0 0 543.41 340.96
  Q 539.02 352.42 528.95 360.45
  Q 521.53 345.06 510.83 332.07
  Q 520.81 330.53 524.89 321.12
  Q 527.37 315.41 527.40 312.46
  Q 527.41 311.29 527.61 310.40
  C 528.48 306.51 528.39 302.16 527.98 299.26
  C 525.32 280.22 525.27 260.98 537.23 244.80
  Q 542.88 237.15 550.61 232.87
  Q 551.55 232.35 552.56 232.31
  A 0.52 0.52 0.0 0 1 553.08 232.97
  C 550.71 241.28 549.28 247.82 550.81 256.55
  C 553.75 273.38 560.47 286.21 568.65 303.57
  C 575.48 318.09 580.86 334.79 582.62 351.12
  Z
  M 539.17 303.49
  C 539.52 303.38 539.06 303.64 539.14 303.59
  Q 539.43 303.41 539.17 303.49
  Q 542.03 302.18 543.99 300.17
  A 0.08 0.08 0.0 0 0 543.90 300.04
  Q 541.23 301.17 539.17 303.49
  Z"
/>
<path fill="#060407" d="
  M 406.15 249.08
  Q 405.03 243.56 401.06 241.90
  C 392.73 238.41 387.64 248.94 393.48 255.01
  Q 393.74 255.49 393.47 255.82
  Q 393.20 256.15 392.88 255.88
  C 389.47 253.07 388.98 249.12 390.84 245.10
  Q 393.80 238.68 401.58 240.89
  A 3.72 3.54 -18.4 0 1 402.58 241.36
  Q 407.44 244.64 406.15 249.08
  Z"
/>
<path fill="#ffffff" d="
  M 406.15 249.08
  Q 404.79 253.88 401.62 255.62
  Q 397.79 257.72 393.48 255.01
  C 387.64 248.94 392.73 238.41 401.06 241.90
  Q 405.03 243.56 406.15 249.08
  Z"
/>
<ellipse fill="#ffffff" cx="0.00" cy="0.00" transform="translate(268.59,249.67) rotate(-103.9)" rx="7.77" ry="7.34"/>
<path fill="#683013" d="
  M 126.37 251.31
  Q 126.59 251.29 126.63 251.58
  Q 126.64 251.68 126.36 251.63
  A 0.16 0.16 0.0 0 1 126.37 251.31
  Z"
/>
<ellipse fill="#e37212" cx="0.00" cy="0.00" transform="translate(131.64,255.58) rotate(-137.6)" rx="2.24" ry="0.21"/>
<path fill="#060407" d="
  M 332.55 275.10
  Q 343.29 275.11 351.39 281.99
  C 365.23 293.75 365.01 312.65 356.11 327.40
  Q 349.32 338.68 340.71 347.94
  C 338.51 350.30 335.66 352.46 332.48 352.46
  C 329.29 352.46 326.45 350.28 324.25 347.92
  Q 315.66 338.65 308.89 327.36
  C 300.02 312.59 299.83 293.69 313.70 281.95
  Q 321.81 275.09 332.55 275.10
  Z
  M 332.50 351.38
  C 339.47 351.39 349.66 335.73 353.39 329.88
  C 358.42 322.02 361.37 314.06 361.18 305.54
  C 360.82 289.33 349.24 276.44 332.57 276.43
  C 315.90 276.41 304.29 289.28 303.91 305.49
  C 303.70 314.01 306.64 321.98 311.65 329.85
  C 315.38 335.70 325.54 351.38 332.50 351.38
  Z"
/>
<path fill="#4f2414" d="
  M 332.57 276.43
  C 349.24 276.44 360.82 289.33 361.18 305.54
  C 361.37 314.06 358.42 322.02 353.39 329.88
  C 349.66 335.73 339.47 351.39 332.50 351.38
  C 325.54 351.38 315.38 335.70 311.65 329.85
  C 306.64 321.98 303.70 314.01 303.91 305.49
  C 304.29 289.28 315.90 276.41 332.57 276.43
  Z
  M 332.13 339.64
  Q 333.84 339.66 335.47 337.71
  Q 343.20 328.47 348.01 318.50
  C 352.02 310.16 353.49 300.75 347.45 293.02
  C 344.01 288.62 338.53 285.18 332.85 285.11
  C 327.16 285.03 321.59 288.32 318.03 292.64
  C 311.80 300.20 313.02 309.65 316.81 318.09
  Q 321.36 328.18 328.84 337.62
  Q 330.42 339.61 332.13 339.64
  Z"
/>
<path fill="#683013" d="
  M 146.54 292.76
  Q 145.59 289.65 146.16 285.94
  L 146.16 284.54
  L 146.47 280.42
  L 146.54 292.76
  Z"
/>
<path fill="#060407" d="
  M 146.16 284.54
  L 146.16 285.94
  Q 146.04 285.27 146.16 284.54
  Z"
/>
<path fill="#060407" d="
  M 332.85 285.11
  C 338.53 285.18 344.01 288.62 347.45 293.02
  C 353.49 300.75 352.02 310.16 348.01 318.50
  Q 343.20 328.47 335.47 337.71
  Q 333.84 339.66 332.13 339.64
  Q 330.42 339.61 328.84 337.62
  Q 321.36 328.18 316.81 318.09
  C 313.02 309.65 311.80 300.20 318.03 292.64
  C 321.59 288.32 327.16 285.03 332.85 285.11
  Z
  M 332.37 338.89
  Q 333.15 338.90 333.72 338.24
  C 341.71 329.21 350.75 315.57 350.00 302.94
  C 349.47 294.10 341.48 286.49 332.63 286.45
  C 323.79 286.40 315.72 293.93 315.10 302.76
  C 314.22 315.38 323.12 329.12 331.02 338.23
  Q 331.59 338.89 332.37 338.89
  Z"
/>
<path fill="#eb7d15" d="
  M 332.63 286.45
  C 341.48 286.49 349.47 294.10 350.00 302.94
  C 350.75 315.57 341.71 329.21 333.72 338.24
  Q 333.15 338.90 332.37 338.89
  Q 331.59 338.89 331.02 338.23
  C 323.12 329.12 314.22 315.38 315.10 302.76
  C 315.72 293.93 323.79 286.40 332.63 286.45
  Z"
/>
<path fill="#eb7d15" d="
  M 539.17 303.49
  Q 541.23 301.17 543.90 300.04
  A 0.08 0.08 0.0 0 1 543.99 300.17
  Q 542.03 302.18 539.17 303.49
  Z"
/>
<path fill="#feb31d" d="
  M 143.41 338.02
  Q 138.70 344.94 135.71 349.96
  Q 124.79 368.31 120.18 390.82
  Q 112.97 381.65 108.94 371.13
  C 106.54 364.88 104.23 357.95 103.35 351.38
  Q 102.35 343.93 102.12 333.50
  Q 102.46 328.94 102.86 324.34
  C 103.50 316.99 105.02 311.91 107.33 305.58
  Q 108.04 303.62 108.99 302.61
  A 0.43 0.43 0.0 0 1 109.69 302.72
  Q 112.67 309.07 117.34 314.40
  Q 127.55 326.03 141.96 335.77
  Q 143.16 336.59 143.41 338.02
  Z"
/>
<path fill="#eb7d15" d="
  M 539.17 303.49
  Q 539.43 303.41 539.14 303.59
  C 539.06 303.64 539.52 303.38 539.17 303.49
  Z"
/>
<path fill="#060407" d="
  M 517.94 309.76
  Q 517.97 309.91 517.74 310.37
  A 0.22 0.22 0.0 0 1 517.33 310.22
  Q 517.43 309.82 517.58 309.66
  A 0.21 0.21 0.0 0 1 517.94 309.76
  Z"
/>
<ellipse fill="#d15c0d" cx="0.00" cy="0.00" transform="translate(522.56,313.98) rotate(-30.8)" rx="5.00" ry="0.28"/>
<path fill="#060407" d="
  M 515.85 317.78
  Q 515.79 317.98 515.64 318.18
  A 0.16 0.16 0.0 0 1 515.38 318.17
  Q 515.29 318.04 515.48 317.63
  A 0.20 0.20 0.0 0 1 515.85 317.78
  Z"
/>
<path fill="#eb7d15" d="
  M 66.43 324.98
  L 66.45 326.50
  A 0.79 0.77 -77.3 0 0 66.88 327.20
  C 78.65 333.12 89.11 337.92 102.12 333.50
  Q 102.35 343.93 103.35 351.38
  C 104.23 357.95 106.54 364.88 108.94 371.13
  Q 112.97 381.65 120.18 390.82
  Q 117.53 405.57 117.58 420.00
  Q 117.59 423.11 118.17 433.46
  Q 110.26 427.84 105.00 420.01
  A 0.42 0.42 0.0 0 0 104.24 420.17
  Q 103.83 422.79 104.01 425.52
  Q 104.76 436.74 106.09 445.15
  C 107.51 454.12 110.44 461.73 113.82 469.93
  C 100.81 469.98 90.30 468.83 75.18 467.45
  Q 69.60 451.06 68.03 443.23
  Q 64.48 425.58 62.53 417.46
  Q 57.90 398.23 48.37 381.30
  A 0.33 0.33 0.0 0 1 48.75 380.83
  C 61.96 384.70 73.44 393.15 82.98 403.25
  A 0.57 0.56 -59.4 0 0 83.94 403.00
  Q 84.06 402.55 83.66 401.82
  C 72.86 382.10 66.09 361.49 65.95 339.25
  Q 65.91 332.12 66.43 324.98
  Z"
/>
<path fill="#d15c0d" d="
  M 392.85 353.83
  Q 392.28 353.71 392.20 353.83
  A 0.34 0.33 25.1 0 0 392.39 354.34
  Q 413.58 360.53 436.08 360.64
  Q 445.53 360.68 456.01 358.93
  A 1.87 1.86 -17.8 0 1 457.99 359.94
  Q 466.19 376.54 469.45 395.52
  Q 476.42 436.08 465.95 475.98
  Q 458.54 504.21 441.12 527.11
  Q 421.28 553.20 390.63 565.89
  Q 375.97 571.96 361.38 574.13
  C 340.49 577.24 316.97 577.23 295.82 572.14
  Q 248.72 560.81 221.71 521.29
  C 201.45 491.66 194.85 453.36 197.63 417.17
  Q 199.99 386.40 212.94 358.70
  A 0.81 0.81 0.0 0 1 213.89 358.26
  Q 218.27 359.49 222.81 359.93
  Q 242.57 361.84 261.36 358.14
  Q 270.42 356.35 279.81 353.38
  Q 298.09 348.96 314.56 338.96
  A 0.63 0.62 -34.4 0 1 315.38 339.11
  C 322.86 348.55 331.43 361.32 343.56 346.55
  Q 350.81 337.73 351.25 337.20
  A 1.00 1.00 0.0 0 1 352.78 337.18
  Q 353.85 338.42 355.04 339.13
  Q 371.20 348.82 383.70 351.54
  Q 389.97 352.90 392.85 353.83
  Z
  M 287.02 412.35
  A 0.21 0.21 0.0 0 0 286.61 412.30
  C 283.53 420.73 279.74 430.40 275.38 437.11
  C 271.12 443.66 262.51 451.85 254.51 444.94
  C 250.10 441.13 246.92 435.62 243.99 430.21
  C 240.32 423.41 239.54 412.27 238.78 403.07
  A 0.40 0.39 -38.2 0 0 238.01 402.98
  C 231.95 420.87 233.96 441.91 247.55 455.91
  Q 250.89 459.34 253.99 460.38
  C 263.50 463.55 273.76 457.74 279.51 450.17
  A 0.97 0.97 0.0 0 1 281.17 450.35
  Q 287.22 463.46 296.78 473.46
  C 300.72 477.60 308.60 479.84 312.71 484.79
  Q 320.94 494.68 323.00 496.95
  C 329.74 504.36 338.71 502.88 344.86 495.81
  Q 349.95 489.96 355.67 481.78
  A 1.70 1.69 16.9 0 1 357.01 481.07
  C 365.75 480.93 372.38 479.38 378.20 472.68
  Q 385.78 463.94 390.83 453.32
  A 0.93 0.93 0.0 0 1 392.41 453.16
  C 395.08 456.69 399.16 462.16 403.26 464.17
  C 409.54 467.24 415.88 466.13 421.29 461.58
  C 437.44 447.99 441.25 424.34 431.85 405.76
  A 0.62 0.62 0.0 0 0 430.67 406.04
  Q 430.70 412.57 430.00 419.46
  C 428.85 430.75 422.53 443.90 413.21 450.48
  A 1.04 1.01 31.5 0 1 412.45 450.65
  Q 405.55 449.47 401.13 444.12
  Q 397.11 439.25 391.74 430.15
  C 389.70 426.69 388.04 421.84 385.95 417.60
  A 0.42 0.42 0.0 0 0 385.16 417.75
  Q 385.01 419.66 384.21 428.94
  Q 382.78 445.51 371.62 457.56
  C 368.27 461.17 365.73 462.52 361.09 462.37
  A 1.55 1.55 0.0 0 1 359.85 461.67
  Q 356.22 456.10 353.69 448.96
  A 0.64 0.64 0.0 0 0 352.45 449.13
  C 351.55 461.76 346.47 476.46 335.15 483.68
  A 1.51 1.50 -51.6 0 1 333.84 483.84
  C 328.18 481.92 326.30 478.32 323.53 472.72
  Q 318.32 462.20 318.31 451.02
  A 0.38 0.37 -30.3 0 0 317.61 450.84
  L 312.70 459.33
  A 1.35 1.35 0.0 0 1 311.13 459.95
  Q 303.93 457.74 299.59 451.62
  Q 291.38 440.03 289.04 426.95
  Q 287.69 419.40 287.02 412.35
  Z
  M 227.00 465.75
  C 226.80 475.57 227.66 483.82 231.85 493.01
  C 234.55 498.95 240.37 503.25 245.81 505.94
  Q 251.44 508.72 256.26 504.99
  A 0.64 0.64 0.0 0 0 255.98 503.85
  C 250.56 502.91 247.00 498.63 243.37 494.40
  Q 237.68 487.75 232.82 479.48
  C 230.21 475.03 228.84 470.72 227.57 465.68
  A 0.29 0.29 0.0 0 0 227.00 465.75
  Z
  M 440.67 472.04
  A 0.23 0.23 0.0 0 0 440.23 471.92
  Q 435.77 480.46 428.86 491.10
  Q 425.67 496.03 418.95 500.86
  A 0.79 0.79 0.0 0 0 418.79 501.99
  L 421.63 505.65
  A 0.67 0.66 -25.9 0 0 422.34 505.89
  Q 428.67 504.12 432.40 498.27
  Q 439.91 486.53 440.67 472.04
  Z
  M 203.95 476.00
  C 210.50 506.45 227.47 533.81 252.99 551.55
  C 264.52 559.57 276.63 565.83 289.58 569.16
  C 298.20 571.38 308.27 573.63 317.61 574.22
  Q 339.69 575.61 357.40 573.39
  Q 390.13 569.27 416.63 549.77
  Q 428.86 540.77 437.38 529.90
  Q 443.23 522.44 447.63 515.40
  Q 453.93 505.31 457.89 494.86
  A 1.13 1.12 37.0 0 0 457.73 493.78
  L 456.05 491.63
  A 0.73 0.73 0.0 0 0 454.99 491.52
  C 449.64 496.11 442.06 506.81 435.23 513.17
  C 425.60 522.14 414.11 529.09 401.09 533.20
  Q 391.84 536.11 386.19 537.71
  A 0.26 0.26 0.0 0 1 385.98 537.24
  Q 400.97 527.77 406.21 510.46
  C 408.17 503.98 407.46 496.33 407.65 490.81
  A 0.41 0.40 -29.4 0 0 406.89 490.60
  C 403.56 496.64 398.57 506.11 393.26 511.74
  C 386.63 518.78 383.08 522.35 373.62 523.36
  A 0.80 0.79 82.9 0 1 372.75 522.68
  L 372.48 520.78
  A 0.96 0.95 54.6 0 0 370.69 520.47
  Q 361.78 537.71 342.32 539.47
  C 331.30 540.47 321.28 540.36 311.85 534.29
  C 306.89 531.11 301.58 523.92 299.11 518.90
  A 0.69 0.69 0.0 0 0 297.80 519.21
  L 297.80 529.74
  A 0.39 0.38 -70.3 0 1 297.17 530.04
  Q 295.22 528.44 286.81 522.67
  C 277.78 516.48 272.65 507.28 267.47 495.91
  Q 266.69 494.19 265.29 491.85
  A 0.58 0.58 0.0 0 0 264.23 492.01
  C 260.96 505.69 260.86 524.90 274.58 533.24
  Q 278.75 535.77 279.57 536.23
  A 0.18 0.17 -25.0 0 1 279.45 536.55
  C 274.21 535.70 268.66 534.81 263.34 532.51
  C 255.38 529.05 249.53 525.95 243.05 520.61
  C 237.11 515.73 232.37 511.77 228.60 506.15
  C 223.25 498.18 220.09 494.27 215.21 486.58
  Q 211.36 480.51 208.15 477.15
  Q 206.19 475.10 204.45 475.30
  A 0.58 0.58 0.0 0 0 203.95 476.00
  Z"
/>
<path fill="#feb31d" d="
  M 547.02 353.54
  Q 550.56 375.59 545.85 399.37
  Q 544.51 406.13 542.04 410.77
  Q 540.24 383.93 528.95 360.45
  Q 539.02 352.42 543.41 340.96
  A 0.43 0.43 0.0 0 1 544.20 340.92
  C 545.99 344.50 546.29 349.55 547.02 353.54
  Z"
/>
<path fill="#e37212" d="
  M 582.62 351.12
  Q 584.11 361.96 584.34 367.00
  C 584.68 374.33 584.66 385.88 583.84 394.32
  C 578.45 449.81 554.64 501.69 513.97 539.72
  Q 479.56 571.90 434.85 589.91
  Q 433.20 582.52 428.50 577.36
  A 0.62 0.61 -32.0 0 1 428.73 576.37
  Q 433.14 574.62 437.30 572.05
  Q 451.92 563.02 463.86 550.61
  C 468.10 546.21 473.83 539.80 478.08 533.38
  Q 479.67 530.99 481.38 528.76
  Q 481.88 529.12 482.22 529.12
  Q 482.56 531.44 483.61 533.50
  A 0.63 0.62 -22.2 0 0 484.36 533.81
  Q 485.80 533.34 487.19 532.18
  Q 507.84 515.13 521.55 493.33
  Q 541.28 461.95 542.05 424.50
  Q 542.14 420.25 542.04 410.77
  Q 544.51 406.13 545.85 399.37
  Q 550.56 375.59 547.02 353.54
  C 559.21 349.74 569.82 349.61 582.62 351.12
  Z"
/>
<path fill="#683013" d="
  M 172.86 363.26
  A 0.30 0.30 0.0 0 1 173.33 363.62
  Q 170.75 369.11 166.50 378.80
  C 162.53 387.87 156.57 398.58 152.79 408.05
  Q 150.18 414.56 145.39 427.23
  C 144.30 430.13 142.85 432.59 141.13 435.84
  A 0.30 0.30 0.0 0 1 140.57 435.71
  C 139.82 413.67 148.38 392.11 161.51 375.23
  Q 166.60 368.67 172.86 363.26
  Z"
/>
<path fill="#683013" d="
  M 502.10 380.74
  C 508.70 387.44 514.09 398.08 517.26 406.93
  Q 522.51 421.60 520.54 438.54
  Q 520.20 441.47 519.25 444.03
  A 0.45 0.45 0.0 0 1 518.38 443.97
  Q 515.26 429.50 510.68 410.55
  Q 508.77 402.65 503.41 387.00
  Q 503.17 386.31 501.80 380.91
  A 0.18 0.18 0.0 0 1 502.10 380.74
  Z"
/>
<path fill="#be4d0b" d="
  M 287.02 412.35
  Q 287.69 419.40 289.04 426.95
  Q 291.38 440.03 299.59 451.62
  Q 303.93 457.74 311.13 459.95
  A 1.35 1.35 0.0 0 0 312.70 459.33
  L 317.61 450.84
  A 0.38 0.37 -30.3 0 1 318.31 451.02
  Q 318.32 462.20 323.53 472.72
  C 326.30 478.32 328.18 481.92 333.84 483.84
  A 1.51 1.50 -51.6 0 0 335.15 483.68
  C 346.47 476.46 351.55 461.76 352.45 449.13
  A 0.64 0.64 0.0 0 1 353.69 448.96
  Q 356.22 456.10 359.85 461.67
  A 1.55 1.55 0.0 0 0 361.09 462.37
  C 365.73 462.52 368.27 461.17 371.62 457.56
  Q 382.78 445.51 384.21 428.94
  Q 385.01 419.66 385.16 417.75
  A 0.42 0.42 0.0 0 1 385.95 417.60
  C 388.04 421.84 389.70 426.69 391.74 430.15
  Q 397.11 439.25 401.13 444.12
  Q 405.55 449.47 412.45 450.65
  A 1.04 1.01 31.5 0 0 413.21 450.48
  C 422.53 443.90 428.85 430.75 430.00 419.46
  Q 430.70 412.57 430.67 406.04
  A 0.62 0.62 0.0 0 1 431.85 405.76
  C 441.25 424.34 437.44 447.99 421.29 461.58
  C 415.88 466.13 409.54 467.24 403.26 464.17
  C 399.16 462.16 395.08 456.69 392.41 453.16
  A 0.93 0.93 0.0 0 0 390.83 453.32
  Q 385.78 463.94 378.20 472.68
  C 372.38 479.38 365.75 480.93 357.01 481.07
  A 1.70 1.69 16.9 0 0 355.67 481.78
  Q 349.95 489.96 344.86 495.81
  C 338.71 502.88 329.74 504.36 323.00 496.95
  Q 320.94 494.68 312.71 484.79
  C 308.60 479.84 300.72 477.60 296.78 473.46
  Q 287.22 463.46 281.17 450.35
  A 0.97 0.97 0.0 0 0 279.51 450.17
  C 273.76 457.74 263.50 463.55 253.99 460.38
  Q 250.89 459.34 247.55 455.91
  C 233.96 441.91 231.95 420.87 238.01 402.98
  A 0.40 0.39 -38.2 0 1 238.78 403.07
  C 239.54 412.27 240.32 423.41 243.99 430.21
  C 246.92 435.62 250.10 441.13 254.51 444.94
  C 262.51 451.85 271.12 443.66 275.38 437.11
  C 279.74 430.40 283.53 420.73 286.61 412.30
  A 0.21 0.21 0.0 0 1 287.02 412.35
  Z"
/>
<path fill="#683013" d="
  M 169.25 418.74
  Q 169.16 423.31 168.98 425.21
  Q 166.56 451.60 168.58 477.86
  C 169.29 487.00 170.77 494.81 172.21 504.34
  A 0.36 0.35 -75.5 0 1 171.64 504.68
  C 158.79 494.65 154.83 472.67 156.13 458.10
  Q 157.29 445.09 162.57 430.63
  Q 165.40 422.88 168.77 418.57
  A 0.27 0.27 0.0 0 1 169.25 418.74
  Z"
/>
<path fill="#f99217" d="
  M 118.17 433.46
  Q 121.17 468.17 140.79 496.96
  Q 145.88 504.43 154.08 514.17
  Q 154.09 514.59 153.99 514.88
  A 0.50 0.49 25.6 0 1 153.25 515.14
  Q 146.90 510.96 143.52 507.98
  C 131.46 497.34 121.40 485.36 113.82 469.93
  C 110.44 461.73 107.51 454.12 106.09 445.15
  Q 104.76 436.74 104.01 425.52
  Q 103.83 422.79 104.24 420.17
  A 0.42 0.42 0.0 0 1 105.00 420.01
  Q 110.26 427.84 118.17 433.46
  Z"
/>
<path fill="#be4d0b" d="
  M 227.00 465.75
  A 0.29 0.29 0.0 0 1 227.57 465.68
  C 228.84 470.72 230.21 475.03 232.82 479.48
  Q 237.68 487.75 243.37 494.40
  C 247.00 498.63 250.56 502.91 255.98 503.85
  A 0.64 0.64 0.0 0 1 256.26 504.99
  Q 251.44 508.72 245.81 505.94
  C 240.37 503.25 234.55 498.95 231.85 493.01
  C 227.66 483.82 226.80 475.57 227.00 465.75
  Z"
/>
<path fill="#e3590f" d="
  M 113.82 469.93
  C 121.40 485.36 131.46 497.34 143.52 507.98
  Q 146.90 510.96 153.25 515.14
  A 0.50 0.49 25.6 0 0 153.99 514.88
  Q 154.09 514.59 154.08 514.17
  L 169.94 530.66
  Q 171.58 533.11 174.90 536.34
  Q 191.50 552.44 210.98 562.58
  L 231.15 577.08
  L 233.13 577.62
  Q 228.15 582.10 227.08 589.06
  Q 226.09 595.51 225.76 598.48
  Q 215.51 595.77 203.71 591.02
  Q 167.95 576.64 137.56 552.94
  C 109.16 530.80 87.45 501.38 75.18 467.45
  C 90.30 468.83 100.81 469.98 113.82 469.93
  Z"
/>
<path fill="#683013" d="
  M 497.16 496.93
  A 0.29 0.29 0.0 0 1 496.63 496.72
  L 502.37 467.27
  A 0.24 0.23 10.9 0 1 502.65 467.09
  L 502.93 467.14
  A 0.20 0.19 -83.6 0 1 503.09 467.35
  Q 502.64 473.79 502.62 482.64
  C 502.61 487.50 499.90 492.38 497.16 496.93
  Z"
/>
<path fill="#be4d0b" d="
  M 440.67 472.04
  Q 439.91 486.53 432.40 498.27
  Q 428.67 504.12 422.34 505.89
  A 0.67 0.66 -25.9 0 1 421.63 505.65
  L 418.79 501.99
  A 0.79 0.79 0.0 0 1 418.95 500.86
  Q 425.67 496.03 428.86 491.10
  Q 435.77 480.46 440.23 471.92
  A 0.23 0.23 0.0 0 1 440.67 472.04
  Z"
/>
<path fill="#be4d0b" d="
  M 204.45 475.30
  Q 206.19 475.10 208.15 477.15
  Q 211.36 480.51 215.21 486.58
  C 220.09 494.27 223.25 498.18 228.60 506.15
  C 232.37 511.77 237.11 515.73 243.05 520.61
  C 249.53 525.95 255.38 529.05 263.34 532.51
  C 268.66 534.81 274.21 535.70 279.45 536.55
  A 0.18 0.17 -25.0 0 0 279.57 536.23
  Q 278.75 535.77 274.58 533.24
  C 260.86 524.90 260.96 505.69 264.23 492.01
  A 0.58 0.58 0.0 0 1 265.29 491.85
  Q 266.69 494.19 267.47 495.91
  C 272.65 507.28 277.78 516.48 286.81 522.67
  Q 295.22 528.44 297.17 530.04
  A 0.39 0.38 -70.3 0 0 297.80 529.74
  L 297.80 519.21
  A 0.69 0.69 0.0 0 1 299.11 518.90
  C 301.58 523.92 306.89 531.11 311.85 534.29
  C 321.28 540.36 331.30 540.47 342.32 539.47
  Q 361.78 537.71 370.69 520.47
  A 0.96 0.95 54.6 0 1 372.48 520.78
  L 372.75 522.68
  A 0.80 0.79 82.9 0 0 373.62 523.36
  C 383.08 522.35 386.63 518.78 393.26 511.74
  C 398.57 506.11 403.56 496.64 406.89 490.60
  A 0.41 0.40 -29.4 0 1 407.65 490.81
  C 407.46 496.33 408.17 503.98 406.21 510.46
  Q 400.97 527.77 385.98 537.24
  A 0.26 0.26 0.0 0 0 386.19 537.71
  Q 391.84 536.11 401.09 533.20
  C 414.11 529.09 425.60 522.14 435.23 513.17
  C 442.06 506.81 449.64 496.11 454.99 491.52
  A 0.73 0.73 0.0 0 1 456.05 491.63
  L 457.73 493.78
  A 1.13 1.12 37.0 0 1 457.89 494.86
  Q 453.93 505.31 447.63 515.40
  Q 443.23 522.44 437.38 529.90
  Q 428.86 540.77 416.63 549.77
  Q 390.13 569.27 357.40 573.39
  Q 339.69 575.61 317.61 574.22
  C 308.27 573.63 298.20 571.38 289.58 569.16
  C 276.63 565.83 264.52 559.57 252.99 551.55
  C 227.47 533.81 210.50 506.45 203.95 476.00
  A 0.58 0.58 0.0 0 1 204.45 475.30
  Z"
/>
<path fill="#060407" d="
  M 481.38 528.76
  Q 479.67 530.99 478.08 533.38
  C 473.83 539.80 468.10 546.21 463.86 550.61
  Q 451.92 563.02 437.30 572.05
  Q 433.14 574.62 428.73 576.37
  A 0.62 0.61 -32.0 0 0 428.50 577.36
  Q 433.20 582.52 434.85 589.91
  Q 436.98 597.61 434.48 606.04
  Q 431.81 615.08 425.33 620.29
  L 430.27 613.89
  A 0.96 0.80 84.8 0 0 430.36 613.76
  Q 433.83 606.83 434.94 598.66
  A 3.16 3.03 -47.4 0 0 434.92 597.67
  C 433.50 588.99 432.69 584.01 428.02 578.06
  A 1.69 1.69 0.0 0 1 428.63 575.49
  Q 438.27 570.93 446.83 564.31
  Q 466.46 549.14 480.10 529.29
  Q 481.24 527.64 481.38 528.76
  Z"
/>
<path fill="#4f2414" d="
  M 210.98 562.58
  Q 191.50 552.44 174.90 536.34
  Q 171.58 533.11 169.94 530.66
  L 176.37 535.41
  A 2.46 2.39 -0.9 0 1 176.70 535.72
  C 178.51 537.77 180.83 538.93 182.94 540.50
  C 189.88 545.64 197.46 550.02 201.76 553.25
  Q 206.23 556.61 210.98 562.58
  Z"
/>
<path fill="#060407" d="
  M 233.13 577.62
  Q 227.31 587.01 227.15 597.27
  Q 227.14 598.10 226.11 599.82
  Q 226.10 598.65 225.76 598.48
  Q 226.09 595.51 227.08 589.06
  Q 228.15 582.10 233.13 577.62
  Z"
/>
<path fill="#060407" d="
  M 404.28 614.25
  Q 402.71 612.95 403.32 610.94
  Q 406.78 599.56 401.56 587.14
  Q 400.40 584.37 402.46 581.24
  Q 404.72 577.80 409.78 578.87
  C 418.94 580.79 423.73 590.96 422.72 599.56
  C 421.72 608.10 414.43 616.11 405.15 614.65
  A 1.80 1.80 0.0 0 1 404.28 614.25
  Z
  M 404.22 612.64
  A 0.94 0.94 0.0 0 0 404.97 613.77
  C 413.35 615.31 419.97 608.17 421.14 600.52
  C 422.46 591.79 418.58 581.08 408.87 579.67
  Q 406.81 579.36 404.68 580.63
  C 399.16 583.88 403.99 588.87 404.93 593.15
  C 406.65 600.94 405.72 605.56 404.22 612.64
  Z"
/>
<path fill="#060407" d="
  M 258.43 610.82
  C 258.92 612.33 258.98 614.94 257.18 615.56
  C 250.15 618.01 244.35 612.77 240.98 607.05
  C 238.69 603.16 238.54 596.25 239.34 591.84
  Q 239.78 589.39 242.51 585.01
  C 246.18 579.13 254.91 576.10 259.61 583.14
  C 261.05 585.30 259.70 587.83 258.50 590.79
  C 255.92 597.17 256.12 603.76 258.43 610.82
  Z
  M 257.85 613.38
  C 256.06 606.27 254.94 601.63 256.38 593.69
  C 257.17 589.32 261.87 584.09 256.16 581.01
  Q 253.95 579.81 251.88 580.20
  C 242.11 582.00 238.60 592.98 240.27 601.76
  C 241.74 609.46 248.71 616.43 257.13 614.55
  A 0.95 0.95 0.0 0 0 257.85 613.38
  Z"
/>
<path fill="#d15c0d" d="
  M 404.22 612.64
  C 405.72 605.56 406.65 600.94 404.93 593.15
  C 403.99 588.87 399.16 583.88 404.68 580.63
  Q 406.81 579.36 408.87 579.67
  C 418.58 581.08 422.46 591.79 421.14 600.52
  C 419.97 608.17 413.35 615.31 404.97 613.77
  A 0.94 0.94 0.0 0 1 404.22 612.64
  Z"
/>
<path fill="#d15c0d" d="
  M 257.85 613.38
  A 0.95 0.95 0.0 0 1 257.13 614.55
  C 248.71 616.43 241.74 609.46 240.27 601.76
  C 238.60 592.98 242.11 582.00 251.88 580.20
  Q 253.95 579.81 256.16 581.01
  C 261.87 584.09 257.17 589.32 256.38 593.69
  C 254.94 601.63 256.06 606.27 257.85 613.38
  Z"
/>
<path fill="#060407" d="
  M 281.72 620.05
  C 275.50 620.15 270.61 613.83 268.54 608.61
  Q 263.57 596.07 270.98 585.55
  C 272.65 583.17 276.68 580.80 279.80 580.86
  Q 285.78 580.97 288.35 587.46
  C 290.36 592.54 287.01 600.83 286.26 605.67
  C 285.65 609.60 286.07 613.91 285.85 617.10
  A 2.12 2.05 62.5 0 1 285.58 618.01
  Q 284.47 620.01 281.72 620.05
  Z
  M 284.70 617.01
  C 284.82 614.24 284.31 609.30 285.13 605.35
  Q 285.68 602.70 287.45 595.03
  Q 288.56 590.21 286.74 586.37
  C 284.85 582.40 280.12 580.76 276.27 582.77
  Q 270.08 586.00 268.55 592.99
  Q 265.68 606.14 274.31 615.57
  Q 277.86 619.46 282.86 618.96
  A 2.05 2.05 0.0 0 0 284.70 617.01
  Z"
/>
<path fill="#060407" d="
  M 377.41 620.47
  A 1.59 1.58 5.4 0 1 376.03 618.81
  L 376.67 608.42
  A 2.84 1.74 -64.1 0 0 376.67 608.07
  Q 376.32 603.72 374.49 597.28
  Q 372.75 591.22 373.27 588.76
  C 374.50 582.86 380.47 578.71 386.58 582.05
  C 399.48 589.11 397.96 610.27 386.62 618.10
  Q 382.28 621.10 377.41 620.47
  Z
  M 377.18 618.88
  A 0.61 0.61 0.0 0 0 377.74 619.50
  C 385.21 620.14 391.42 613.47 393.29 606.83
  C 395.45 599.15 394.46 588.23 387.23 583.59
  Q 380.75 579.44 375.92 585.40
  Q 373.35 588.57 374.32 592.23
  Q 377.10 602.70 377.25 603.57
  A 9.55 9.38 -50.8 0 1 377.46 605.82
  L 377.18 618.88
  Z"
/>
<path fill="#d15c0d" d="
  M 284.70 617.01
  A 2.05 2.05 0.0 0 1 282.86 618.96
  Q 277.86 619.46 274.31 615.57
  Q 265.68 606.14 268.55 592.99
  Q 270.08 586.00 276.27 582.77
  C 280.12 580.76 284.85 582.40 286.74 586.37
  Q 288.56 590.21 287.45 595.03
  Q 285.68 602.70 285.13 605.35
  C 284.31 609.30 284.82 614.24 284.70 617.01
  Z"
/>
<path fill="#d15c0d" d="
  M 377.18 618.88
  L 377.46 605.82
  A 9.55 9.38 -50.8 0 0 377.25 603.57
  Q 377.10 602.70 374.32 592.23
  Q 373.35 588.57 375.92 585.40
  Q 380.75 579.44 387.23 583.59
  C 394.46 588.23 395.45 599.15 393.29 606.83
  C 391.42 613.47 385.21 620.14 377.74 619.50
  A 0.61 0.61 0.0 0 1 377.18 618.88
  Z"
/>
</svg>
